<svg xmlns="http://www.w3.org/2000/svg" width="798" height="397"><path fill="#CD78C6" d="M495.031 15.87q6.86.006 13.72 0c43.184-.043 43.184-.043 62.928.402q2.147.047 4.294.081c21.536.362 41.715 6.22 57.64 21.17 12.681 13.158 16.878 27.143 16.598 45.067-.714 20.376-10.488 38.086-23.211 53.41l-2.117 2.793L623 141h-2v2c-9.731 8.412-20.224 14.9-32 20l-1.936.85c-18.022 7.768-37.241 10.321-56.748 10.283l-3.29.004c-3.488.002-6.976-.005-10.463-.012l-3.604-.003c-15.443-.013-30.839-.228-46.268-.892-34.46-1.475-59.718 3.785-88.691 22.77q-2.39 1.553-4.781 3.105-3.796 2.465-7.588 4.937c-11.444 7.459-23.006 14.731-34.625 21.915a1145 1145 0 0 0-5.348 3.333c-4.053 2.533-8.106 4.986-12.33 7.226-8.845 4.803-13.326 8.82-16.254 18.59l-.541 1.974c-.837 3.017-1.89 5.96-2.908 8.92l-1.21 3.71c-4.104 12.538-8.403 25.04-13.274 37.302a154 154 0 0 0-2.344 6.633l-1.235 3.73-1.058 3.336c-3.882 8.49-10.307 12.4-18.254 16.851l-5.672 3.254-2.818 1.6a413 413 0 0 0-7.975 4.713c-4.152 2.506-8.354 4.899-12.597 7.246a316 316 0 0 0-14.813 8.75c-5.402 3.369-10.94 6.225-16.668 8.996-2.734 1.35-5.374 2.815-8.008 4.352l-2.182 1.27a319 319 0 0 0-4.188 2.5c-4.85 2.843-4.85 2.843-7.541 2.359L172 382c.394-5.779 2.312-10.337 4.605-15.625 1.479-3.578 2.752-7.198 3.958-10.875l.627-1.914q.908-2.792 1.81-5.586 1.057-3.252 2.125-6.5l.883-2.719c1.187-3.328 2.59-6.537 3.992-9.781 3.5-8.778 6.644-17.578 9.087-26.712 1.126-4.072 2.551-7.889 4.218-11.772 3.201-7.527 5.715-15.249 8.257-23.016l1.42-4.3q1.374-4.161 2.743-8.324a5768 5768 0 0 1 3.521-10.68l.924-2.797c1.111-3.21 2.45-6.295 3.83-9.399l.863-2.469c3.306-9.252 8.36-12.233 16.73-16.66 4.295-2.359 8.476-4.88 12.657-7.434l2.292-1.39a181 181 0 0 0 11.898-7.955c2.098-1.469 4.29-2.663 6.56-3.842 11.112-5.943 21.776-12.683 32.438-19.39 3.426-2.154 6.866-4.284 10.312-6.407 9.089-5.616 18.113-11.22 26.75-17.516 43.436-31.447 83.481-35.705 135.625-34.5l2.666.06c9.368.212 18.683.555 28.027 1.283 5.124.355 10.235.443 15.37.47l2.998.062c10.378.055 21.205-2.22 29.814-8.312 4.872-5.367 7.956-11.476 8.027-18.809-.187-4.148-.187-4.148-1.027-8.191-1.76-1.331-1.76-1.331-4-2l-2.184-.816-2.254-.747-2.246-.753c-4.93-1.456-9.492-1.828-14.636-1.89l-2.197-.03q-3.627-.045-7.253-.08l-5.178-.063q-6.982-.083-13.966-.153-4.34-.046-8.68-.096c-21.031-.238-42.061-.41-63.094-.4l-2.56.002c-8.047.005-16.093.02-24.139.054q-4.374.017-8.749.027-2.985.012-5.97.033l-3.536.01-3.083.016C390 74 390 74 389 73c-.794-6.13 1.738-11.29 3.938-16.875l2.464-6.406 1.293-3.332c2.147-5.57 4.222-11.168 6.305-16.762q1.124-3.012 2.25-6.023l.953-2.553C407 19 407 19 408 17c29.013-.891 58.005-1.16 87.031-1.13"/><path fill="#53ACF8" d="m123.188 15.867 3.809-.003q3.974-.002 7.947.006 5.064.006 10.127-.004c3.247-.004 6.494-.001 9.742.001l3.643-.006c5.944.017 11.667.23 17.544 1.139 1.773 4.14.006 7.537-1.504 11.477q-.848 2.302-1.692 4.606l-.901 2.439c-1.502 4.123-2.901 8.281-4.305 12.439l-1.76 5.18-2.658 7.842c-3.468 10.243-7.014 20.446-10.803 30.575-2.266 6.065-4.334 12.183-6.334 18.34-.92 2.735-1.972 5.424-3.043 8.102l120 1 1-5a281 281 0 0 1 2.75-7.312c2.671-6.942 4.952-13.94 7.074-21.067 1.188-3.658 2.63-7.101 4.176-10.621 4.484-11.314 8.395-22.836 12.309-34.356q1.216-3.562 2.457-7.114 1.269-3.631 2.48-7.282l1.25-3.58 1.096-3.23C299 17 299 17 301.2 16.356c3.028-.385 5.939-.483 8.991-.485l3.723-.01 4.003.006q2.072 0 4.144-.003 4.341-.002 8.682.006 5.526.006 11.051-.004 4.282-.005 8.563 0 3.015 0 6.032-.005c6.933.018 13.73.26 20.61 1.139-.562 4.683-1.477 8.877-3.04 13.324l-1.248 3.586-1.337 3.778-1.373 3.926q-1.365 3.904-2.74 7.806-1.607 4.56-3.2 9.123a4921 4921 0 0 1-3.347 9.559 2266 2266 0 0 0-3.711 10.671q-2.523 7.307-5.083 14.6-.869 2.477-1.73 4.957c-10.962 31.47-31.121 55.097-61.309 69.775-24.549 11.673-50.126 11.05-76.82 10.993l-7.733-.005q-9.073-.004-18.146-.021-10.346-.015-20.692-.022-21.245-.016-42.491-.05l-.4 1.853-.534 2.44-.526 2.415c-.7 2.973-1.662 5.797-2.712 8.663l-1.255 3.464-1.323 3.602c-3.247 8.951-6.447 17.904-9.36 26.969-.991 3.051-2.064 5.996-3.34 8.942-1.916 4.514-3.414 9.114-4.925 13.777-2.334 7.115-4.801 14.115-7.574 21.07-1.312 3.503-2.292 7.053-3.18 10.684-1.2 2.924-2.333 4.192-4.871 6.121a56.4 56.4 0 0 1-8.555.277l-2.634-.052q-2.87-.06-5.737-.142a674 674 0 0 0-9.552-.176 2834 2834 0 0 1-17.138-.28q-5.35-.097-10.7-.184l-6.817-.127-3.225-.05-2.959-.06-2.603-.048C11 288 11 288 9 287c.593-6.959 2.987-13.2 5.313-19.75l1.324-3.783 2.11-6.027c1.84-5.24 3.649-10.49 5.444-15.745l.805-2.355q1.573-4.602 3.144-9.206c2.592-7.592 5.215-15.167 7.98-22.698 1.369-3.788 2.63-7.608 3.88-11.436q1.497-4.563 3-9.125l.75-2.3a126 126 0 0 1 4.406-11.485c2.056-5.092 3.642-10.372 5.344-15.59 2.272-6.966 4.605-13.767 7.5-20.5 1.435-4.126 2.775-8.283 4.125-12.437 2.997-9.12 6.144-18.155 9.563-27.126a558 558 0 0 0 8.863-25.039c4.442-13.554 9.338-26.942 14.429-40.266 1.9-5.003 3.655-9.955 5.02-15.132 7.078-1.096 14.034-1.145 21.188-1.133"/><path fill="#FA63B2" d="m422 187 3 1c-.682 5.16-2.142 9.847-3.812 14.75l-.812 2.415c-1.69 4.98-3.5 9.877-5.614 14.694-.952 2.674-1.32 5.342-1.762 8.141l3.024-.003q36.378-.033 72.756-.049 17.592-.007 35.183-.023 15.33-.015 30.656-.02 8.121 0 16.242-.01 7.635-.01 15.27-.008 2.81 0 5.62-.006 3.822-.006 7.644-.001l2.27-.01c5.107.016 5.107.016 7.335 1.13.364 6.026-.91 10.807-2.812 16.5l-.792 2.473c-1.56 4.8-3.393 9.391-5.396 14.027a376 376 0 0 0-2.437 7.313c-4.418 13.473-4.418 13.473-6.563 17.687-2.635 1.317-4.611 1.14-7.563 1.158l-3.598.03-3.98.017-4.19.03c-3.832.028-7.664.048-11.497.068q-6.125.035-12.25.077-11.858.074-23.714.138-9.545.051-19.091.108c-44.728.26-89.456.476-134.185.497q-5.048.003-10.095.01-7.806.009-15.611.001-2.794 0-5.59.002-3.76.003-7.52-.007l-2.161.007c-12.873-.054-12.873-.054-14.955-2.136.467-4.837 1.566-9.162 3.145-13.746l.64-1.863q.666-1.936 1.343-3.87c.68-1.947 1.348-3.899 2.015-5.851 6.378-18.519 6.378-18.519 11.67-21.545l2.363-1.426L339 237c3.13-2.074 6.228-4.196 9.331-6.31 3.99-2.678 8.075-5.053 12.29-7.357 4.296-2.407 8.454-5.037 12.629-7.645l5.574-3.465 2.697-1.68C408.467 193.766 408.467 193.766 422 187"/><path fill="#F963B3" d="M694.063 98.773h2.13c2.316 0 4.632.016 6.948.032l4.825.008c4.229.008 8.457.028 12.685.05 4.317.02 8.634.03 12.95.04 8.467.02 16.933.055 25.399.097 1.293 4.21.27 7.14-1.133 11.187l-.708 2.117q-.746 2.22-1.509 4.438a853 853 0 0 0-2.252 6.668c-2.123 6.302-4.306 12.53-6.93 18.645-2.786 6.51-4.964 13.197-7.147 19.926-3.417 10.523-6.912 20.973-11.04 31.242-2.226 5.55-4.12 11.18-5.968 16.867-1.761 5.335-3.758 10.584-5.723 15.847a382 382 0 0 0-5.215 15c-5.88 17.753-13.05 31.19-29.676 40.711-13.433 6.727-27.199 6.52-41.855 6.482-2.499-.005-4.997 0-7.496.007q-2.382 0-4.762-.004l-2.266.006c-5.205-.024-5.205-.024-6.32-1.139-.84-6.159 1.287-10.786 3.59-16.45 1.36-3.423 2.53-6.856 3.66-10.363 2.13-6.56 4.545-12.993 7-19.437a579 579 0 0 0 9-25.5c3.587-10.954 7.432-21.795 11.375-32.625 5.093-13.977 5.093-13.977 9.875-28.063 3.005-9.192 6.168-18.328 9.361-27.457q.882-2.52 1.758-5.044 1.24-3.56 2.49-7.12l.748-2.156c3.841-10.881 3.841-10.881 6.8-12.935 3.21-1.164 5.993-1.089 9.406-1.077"/><path fill="#F669B7" d="M495.031 15.87q6.86.006 13.72 0c43.184-.043 43.184-.043 62.928.402q2.147.047 4.294.081c21.536.362 41.715 6.22 57.64 21.17 12.681 13.158 16.878 27.143 16.598 45.067-.714 20.376-10.488 38.086-23.211 53.41l-2.117 2.793L623 141h-2v2c-9.731 8.412-20.224 14.9-32 20l-1.936.85c-18.022 7.768-37.241 10.321-56.748 10.283l-3.29.004c-3.488.002-6.976-.005-10.463-.012l-3.604-.003c-15.443-.013-30.839-.228-46.268-.892-31.109-1.331-56.919 1.583-83.162 19.444-4.428 2.938-8.31 4.276-13.529 5.326v-2h-2v-2h2v-2h-2v-2h6v-4h-4v2h-2v-6h2v2h8v-2h2v2h2v-2h2v-4h2v-2h4v2h2v-2l3 1 2-4h3v2h2v-3h4v-2h4v-2h4v4h2v-6c1.437-.054 2.875-.093 4.313-.125l2.425-.07C425 166 425 166 428 168v-4h21v1l15 1v-6h4v2h12l1 3 8 1-1 4h8v-10h4v2h12v-2h17v1l15 1v-2h9l-1 2c-2.322.407-4.657.744-7 1l-1 3q5.938.041 11.875.062l3.418.026 3.262.01 3.015.016c2.44.05 2.44.05 4.43-1.114l-2-2 2-3c3.625-.188 3.625-.188 7 0l1-2c3.063-.625 3.063-.625 6-1v-3l-8 2v-4h2v-2h6v2h5l2 4 1-12h16v-12h2v-2h-2v-2h4v2l3.188-1c3.812-1 3.812-1 8.812-1v-14h2v8c3.125-1.635 3.125-1.635 3.688-4.125L630 116h2v-2h-2v-2h9c1.099-3.707 1.099-3.707 1-6.438 0-2.683.462-4.934 1-7.562.264-2.368.499-4.737.719-7.11C642 89 642 89 643 88q.062-3.5 0-7h-3l-1-26-2 1c-2.147-2.147-2.543-3.078-3-6l1-2c-1.946-.59-1.946-.59-4-1l-1 1c-2.67.141-5.324.042-8 0l1-2h5v-4l-4 1v-7h-2v-2h-2v-2c-5.288.415-8.117 1.352-12 5v-5l-3-1 1-2-10-1v-2l-3 1-1 3q-2.874.292-5.75.562l-3.234.317c-2.657.107-4.516-.06-7.016-.879v-2h8v-2h8v-4c-5.174.34-9.066 1.003-13.762 3.3C572.804 27 566.668 26.789 561 27l-1 3h-32v-4h-16v-2h16v-2h-16v-2l-3.687 1.062c-3.489.888-5.797.842-9.313-.062l-3 1v-2l-79 1v8c-1 2.5-1 2.5-2 4h-3l-1-2c-2.04 3.245-3.665 6.406-5 10h2v7h-6l-.375 1.937L401 52l-2 1 1 1c.263 3.948.09 6.604-2 10h2l-1 3 33 1v2l8-1v-1h40v1l16 1v-4h16v2h36v-2l2.875-.438c3.018-.391 3.018-.391 5.125-1.562l1 3 2-3h3l-3 6h5v-2h2v-2h-2v-2h6l2 8h-4v6h2v-4l3 1v3h3l-.562 3.187c-.395 3.437-.17 5.517.562 8.813l-1 3v4c-.304 1.672-.631 3.34-1 5h2l-2 8h2v2l-2.437-.563L571 111l-1 1c-2 .04-4 .043-6 0-.8 3.287-1.097 4.71 0 8h-16v2h2v4l-1.934.184-2.504.253-2.496.247c-2.053.105-2.053.105-3.066 1.316-2.02.072-4.042.084-6.062.062l-3.348-.027L528 128v-2l-2.937.219c-9.705.684-19.336.897-29.063.781v-7h-18v-2l-13 1-1 3-3.246.184-4.192.253-2.142.12c-3.507-.08-3.507-.08-6.42 1.443-3.21.27-6.412.446-9.629.605-3.48-.108-3.48-.108-6.371 1.395a197 197 0 0 1-7.25.5c-4.323.225-8.52.516-12.75 1.5v-2l-1.812.562C408 127 408 127 405 126v2h-6v-2l-2.125 1c-3.166 1.101-5.546 1.222-8.875 1l-2-1v-2c30.606-12.989 61.565-11.315 94.125-10.563l2.666.06c9.368.212 18.683.555 28.027 1.283 5.124.355 10.235.443 15.37.47l2.998.062c10.378.055 21.205-2.22 29.814-8.312 4.872-5.367 7.956-11.476 8.027-18.809-.187-4.148-.187-4.148-1.027-8.191-1.76-1.331-1.76-1.331-4-2l-2.184-.816-2.254-.747-2.246-.753c-4.93-1.456-9.492-1.828-14.636-1.89l-2.197-.03q-3.627-.045-7.253-.08l-5.178-.063q-6.982-.083-13.966-.153-4.34-.046-8.68-.096c-21.031-.238-42.061-.41-63.094-.4l-2.56.002c-8.047.005-16.093.02-24.139.054q-4.374.017-8.749.027-2.985.012-5.97.033l-3.536.01-3.083.016C390 74 390 74 389 73c-.794-6.13 1.738-11.29 3.938-16.875l2.464-6.406 1.293-3.332c2.147-5.57 4.222-11.168 6.305-16.762q1.124-3.012 2.25-6.023l.953-2.553C407 19 407 19 408 17c29.013-.891 58.005-1.16 87.031-1.13"/><path fill="#55AFF5" d="m299 178 2 1c1 3 1 3 0 6l2 2-3 1 1 3c-1.74 1.74-4.194 1.372-6.562 1.563L289 193l-1 13h-8l-1-3-2.437.563L274 204l-1-1-1 3h4v2l-3.437-.562L269 207l-1 1c-1.682.233-3.371.413-5.062.563l-2.786.253L258 209v2c0 3 0 3-1.562 5.375-1.72 2.543-1.72 2.543-1.125 5.438L256 224c-7.75 1.125-7.75 1.125-10 0v-2h-2v2l-3 1c-1.142 2.758-1.142 2.758-2 6l-2 6 2 2c-1 1-1 1-3.937 1.125C232 240 232 240 230 239c-2.61.894-2.61.894-5 2l-.375 3.313C224 248 224 248 222 251c.3 3.72.817 7.177 1.625 10.813C224 264 224 264 223 267l1 1c.072 2.02.084 4.042.063 6.063l-.028 3.347L224 280h-2l1 3c-.437 2.688-.437 2.688-1 5l-2.59.184-3.347.253-3.34.247c-2.634.02-2.634.02-3.723 1.316-.247 3.233-.384 6.464-.523 9.703-.503 3.477-1.475 5.449-3.477 8.297l3 4-1 2a76 76 0 0 0 1 5l-3 2a65 65 0 0 0-.687 7.625l-.104 2.14c-.083 1.745-.147 3.49-.209 5.235h-4c-2.336.312-4.67.642-7 1-1.583 4.326-2.451 8.429-3 13h2v2h6v2h2v2h6v2l4-2-6-2v-2h10v2h2l1-3h7c1.108-3.325.845-5.622 0-9h2v2h2v-2h2v-2h-6v-4h2v2h2v-2h4v2h8v-2h4c2.004-.308 4.005-.637 6-1 0-2.156-.447-3.924-1-6l5 2c2.326-3.634 2.163-6.77 2-11h10l2-6h2v-2h2v-16h2v-4h2v-10h2v6h2v-16l4-2v-5l4-2v-23h16v-16h4v4h2v2h2v-4h2l1-2c3.875.875 3.875.875 5 2h2l1 5-1.788 1.022a1303 1303 0 0 0-8.024 4.666l-2.815 1.607-2.705 1.592-2.491 1.444c-4.58 3.511-6.008 8.658-7.677 13.982-1.447 4.513-2.962 8.954-4.647 13.385-1.839 4.963-3.513 9.984-5.228 14.99-2.708 7.866-5.435 15.701-8.52 23.43a146 146 0 0 0-2.304 6.515l-1.238 3.742-1.06 3.336c-3.88 8.49-10.306 12.4-18.253 16.851l-5.672 3.254-2.818 1.6a413 413 0 0 0-7.975 4.713c-4.152 2.506-8.354 4.899-12.597 7.246a316 316 0 0 0-14.813 8.75c-5.402 3.369-10.94 6.225-16.668 8.996-2.734 1.35-5.374 2.815-8.008 4.352l-2.182 1.27a319 319 0 0 0-4.188 2.5c-4.85 2.843-4.85 2.843-7.541 2.359L172 382c.394-5.779 2.312-10.337 4.605-15.625 1.479-3.578 2.752-7.198 3.958-10.875l.627-1.914q.908-2.792 1.81-5.586 1.057-3.252 2.125-6.5l.883-2.719c1.187-3.328 2.59-6.537 3.992-9.781 3.5-8.778 6.644-17.578 9.087-26.712 1.126-4.072 2.551-7.889 4.218-11.772 3.201-7.527 5.715-15.249 8.257-23.016l1.42-4.3q1.374-4.161 2.743-8.324a5768 5768 0 0 1 3.521-10.68l.924-2.797c1.111-3.21 2.45-6.295 3.83-9.399l.863-2.469c3.306-9.252 8.36-12.233 16.73-16.66 4.295-2.359 8.476-4.88 12.657-7.434l2.292-1.39a181 181 0 0 0 11.898-7.955c2.098-1.469 4.29-2.663 6.56-3.842 4.752-2.535 9.387-5.224 14-8l1.96-1.179c2.719-1.64 5.398-3.31 8.04-5.071"/><path fill="#52ABF7" d="M779.527 20.418c3 3.223 3.613 6.24 3.473 10.582-1.356 7.212-3.607 14.076-6.221 20.923a242 242 0 0 0-2.314 6.507l-.764 2.218a988 988 0 0 0-1.539 4.524c-1.94 5.606-1.94 5.606-4.162 7.828-2.465.274-2.465.274-5.608.306l-3.561.049-3.87.016c-1.31.01-2.62.018-3.97.027q-4.168.025-8.337.028c-3.544.005-7.088.042-10.631.088-3.396.037-6.791.039-10.187.045l-3.833.059c-7.788-.04-13.356-.971-19.003-6.618-1.283-9.181.04-16.522 3.625-25l1.002-2.388c3.295-7.305 7.727-12.877 14.373-17.425l2.438-1.707c5.239-3.026 10.617-3.946 16.562-4.605l2.257-.253c29.568-3.09 29.568-3.09 40.27 4.796"/><path fill="#F665B5" d="m555 64 2 3 2-3h3l-3 6h5v-2h2v-2h-2v-2h6l2 8h-4v6h2v-4l3 1v3h3l-.562 3.188c-.395 3.436-.17 5.516.562 8.812l-1 3v4c-.304 1.672-.631 3.34-1 5h2l-2 8h2v2l-2.437-.562L571 111l-1 1c-2 .04-4 .043-6 0-.8 3.287-1.097 4.71 0 8h-16v2h2v4l-1.934.184-2.504.254c-.823.08-1.647.162-2.496.246-2.053.105-2.053.105-3.066 1.316-2.02.072-4.042.084-6.062.063l-3.348-.028L528 128v-2l-2.937.219c-9.705.684-19.336.897-29.063.781v-7h-18v-2l-13 1-1 3c-1.607.09-1.607.09-3.246.184l-4.192.254-2.142.119c-3.507-.08-3.507-.08-6.42 1.443-3.21.27-6.412.446-9.629.605-3.48-.108-3.48-.108-6.371 1.395a197 197 0 0 1-7.25.5c-4.323.225-8.52.516-12.75 1.5v-2l-1.812.563C408 127 408 127 405 126v2h-6v-2l-2.125 1c-3.166 1.101-5.546 1.222-8.875 1l-2-1v-2c30.606-12.989 61.565-11.315 94.125-10.562l2.666.059c9.368.212 18.683.555 28.027 1.283 5.124.355 10.235.443 15.37.47 1.484.03 1.484.03 2.998.063 10.378.054 21.205-2.222 29.814-8.313 4.619-5.087 8.017-11.212 7.992-18.223-.369-4.802-1.324-8.673-3.992-12.777l-3-1v-2c-7.619-2.44-15.108-2.308-23.045-2.319l-4.555-.03a3559 3559 0 0 0-12.308-.056c-4.295-.015-8.59-.042-12.885-.068q-12.186-.068-24.372-.116c-9.253-.039-18.506-.088-27.758-.138Q426.539 71.119 398 71v-3h34v2l8-1v-1h40v1l16 1v-4h16v2h36v-2l2.938-.437c2.927-.239 2.927-.239 4.062-1.563"/><path fill="#FB69BC" d="m421 193 3 1c-6.155 18.834-6.155 18.834-9.238 25.86-.952 2.673-1.32 5.341-1.762 8.14l3.024-.003q36.378-.033 72.756-.049 17.592-.007 35.183-.023 15.33-.015 30.656-.02 8.121 0 16.242-.01 7.635-.01 15.27-.008 2.81 0 5.62-.006 3.822-.006 7.644-.001l2.27-.01c5.107.016 5.107.016 7.335 1.13.364 6.026-.91 10.807-2.812 16.5l-.792 2.473c-1.183 3.64-2.427 7.21-3.958 10.718-1.396 3.212-2.541 6.42-3.625 9.747l-1.043 3.183L596 274h-6v-2h4v-4h2v-6h2v-6h2l.438-2.625L602 244l-2-1v-7h-72v-2h-96v-2l-3.29.07q-2.167.029-4.335.055l-2.16.05c-4.476.042-7.994-.484-12.215-2.175v-10h2v-4h2v-8h3l1-6h2l-.062-3.937A59 59 0 0 1 420 194z"/><path fill="#F569B8" d="M366 220c2 1 2 1 4 4h-2v2h-2v-2h-2l-2 4h-2v2h-2v4h-2v2h-2v2h-2v-4c-2.352.599-4.686 1.27-7 2l-1 2-3 1-.75 2-1.25 2c-3.625.75-3.625.75-7 1v2h2v2h2v2h-4l-1-2-1 2h-2v2h3l-1 4h-3l-1 6h-2v10h-2c-.89 3.303-1.463 6.623-2 10h-2v4l130-1v-3h33v1l15 1v-2h86v2h-6v2h11v-2h4l1-3 1 2c-1.472 3.736-1.472 3.736-4 5-1.852.106-3.708.147-5.563.158l-3.598.03-3.98.017-4.19.03c-3.832.028-7.664.048-11.497.068q-6.125.035-12.25.077-11.858.074-23.714.138-9.545.051-19.091.108c-44.728.26-89.456.476-134.185.497q-5.048.003-10.095.01-7.806.009-15.611.001-2.794 0-5.59.002-3.76.003-7.52-.007l-2.161.007c-12.873-.054-12.873-.054-14.955-2.136.467-4.837 1.566-9.162 3.145-13.746.21-.615.422-1.23.64-1.863q.666-1.936 1.343-3.87c.68-1.947 1.348-3.899 2.015-5.851 6.378-18.519 6.378-18.519 11.67-21.545l2.363-1.426L339 237a568 568 0 0 0 5.535-3.729c5.45-3.698 10.898-7.26 16.73-10.333 1.634-.884 3.19-1.908 4.735-2.938"/><path fill="#7ABFED" d="m123.188 15.867 3.809-.003q3.974-.002 7.947.006 5.064.006 10.127-.004c3.247-.004 6.494-.001 9.742.001l3.643-.006c5.944.017 11.667.23 17.544 1.139 1.773 4.14.006 7.537-1.504 11.477q-.848 2.302-1.692 4.606l-.901 2.439c-1.502 4.123-2.901 8.281-4.305 12.439l-1.76 5.18-2.658 7.842c-3.468 10.243-7.014 20.446-10.803 30.575-2.266 6.065-4.334 12.183-6.334 18.34-.92 2.735-1.972 5.424-3.043 8.102l120 1 1-5c.634-1.68 1.293-3.35 2-5h1c.125 6.75.125 6.75-1 9h4v2h-6v2H140c0-6.075.537-7.87 3-13l-2-1h2l1-4h2l-.125-2.625c.13-3.499.885-6.12 2.125-9.375h2l-.312-2.375c.311-3.617.945-5.133 2.625-8.25 2.566-4.785 3.873-9.418 5.011-14.71.627-2.472 1.44-4.447 2.676-6.665h2v-8h2l-.125-3.187c.116-3.553.597-5.662 2.125-8.813h2v-6h2l.375-1.562c1.074-4.189 2.258-8.336 3.625-12.438h-73l1-3c7.078-1.096 14.034-1.145 21.188-1.133"/><path fill="#51ADF4" d="m305 155 4 1c-7.757 6.099-16.128 10.184-25.094 14.151-1.551.691-3.09 1.41-4.625 2.138-4.978 2.233-10.056 3.409-15.406 4.399l-1.934.362c-16.409 2.746-33.311 2.083-49.878 2.048l-7.734-.005q-9.073-.004-18.146-.021-10.346-.015-20.692-.022-21.245-.016-42.491-.05l-1-3 126-1v-3h9l-1-6h8v-2h-2v-2h6v2h6v-2h6l1 4h9v-2l6-2v-2h4l1-4 4 1z"/><path fill="#ED70B4" d="M416 166h9l2 4h45v1l-36 1v1l-3.7.48c-16.947 2.342-30.649 7.94-45.241 16.934l-2.017 1.237q-1.93 1.193-3.842 2.416c-3.733 2.32-6.82 3.518-11.2 3.933v-2h-2v-2h2v-2h-2v-2h6v-4h-4v2h-2v-6h2v2h8v-2h2v2h2v-2h2v-4h2v-2h4v2h2v-2l3 1 2-4h3v2h2v-3h4v-2h4v-2h4v4h2z"/><path fill="#52ABF8" d="M304 224h4v4h2v2h2v-4h2l1-2c3.875.875 3.875.875 5 2h2l1 5-1.788 1.022a1303 1303 0 0 0-8.024 4.666l-2.815 1.607-2.705 1.592-2.491 1.444c-4.58 3.511-6.008 8.658-7.677 13.982-1.447 4.513-2.962 8.954-4.647 13.385-1.839 4.963-3.513 9.984-5.228 14.99-2.75 7.99-5.524 15.946-8.652 23.796-1.087 2.81-2.04 5.652-2.973 8.516h-2v-8h2v-4h2v-4h2l-.187-2.375c.25-4.825 1.672-9.062 3.187-13.625h3v-6h2v-6h2v-4h-6c1-3 1-3 4-5 .416-2.421.416-2.421.293-5.227l-.03-3.125-.075-3.273-.042-3.297c-.035-2.693-.089-5.385-.146-8.078h16z"/><path fill="#F374B7" d="m421 193 3 1c-6.155 18.834-6.155 18.834-9.238 25.86-1.04 2.722-1.04 2.722-1.762 8.14h194l-1 4h-2l-1 2-2 1-1-3-1.854.016q-4.385.03-8.771.047l-2.91.025a299 299 0 0 1-17.223-.436c-15.509-.824-31.024-.872-46.55-.955q-5.967-.036-11.932-.076-11.24-.074-22.48-.138-12.82-.076-25.64-.16-26.32-.169-52.64-.323v-10h2v-4h2v-8h3l1-6h2l-.062-3.937A59 59 0 0 1 420 194z"/><path fill="#5CADF5" d="M192 323h1l.375 2.375c.416 2.766.416 2.766 2.625 4.625h-2l1 3 1 3-3 1c-1.023 2.097-1.023 2.097-1.687 4.563l-.762 2.503L190 346h-4v10h-2v2h-2v2h2v4c2.169-.506 4-1 6-2l2 3 2 1v2h-2v2l6-2v-2h-2v-4h-2v-2h-2v-2h4v2h2v2l3 1-1 3h4v-2c3.418-2.54 5.758-3.364 10-3-3.996 3.453-8.145 5.806-12.812 8.188-4.629 2.389-9.224 4.8-13.72 7.433-1.079.63-1.079.63-2.18 1.27a324 324 0 0 0-4.11 2.453c-4.644 2.712-4.644 2.712-7.627 2.398L172 382c.394-5.779 2.312-10.337 4.605-15.625 1.479-3.578 2.752-7.198 3.958-10.875l.627-1.914q.908-2.792 1.81-5.586c2.103-6.466 4.262-12.777 7-19 .688-1.993 1.363-3.99 2-6"/><path fill="#59ACF9" d="M90 266h3c-.182.534-.364 1.067-.55 1.617l-.763 2.258-.835 2.473c-1.101 3.429-2.017 6.902-2.91 10.39-1.245 2.99-2.34 4.29-4.942 6.262a56.4 56.4 0 0 1-8.555.277l-2.634-.052q-2.87-.06-5.737-.142a674 674 0 0 0-9.552-.176 2834 2834 0 0 1-17.138-.28q-5.35-.097-10.7-.184l-6.817-.127-3.225-.05-2.959-.06-2.603-.048C11 288 11 288 9 287c.549-4.571 1.417-8.674 3-13l2 1-2 9h2v-2h66l1 4h3v-6h2v-6h2v-3h2z"/><path fill="#F763B0" d="M512 20h74c-5.589 5.589-10.205 6.268-17.875 6.625l-2.086.117q-2.52.138-5.039.258l-1 3h-32v-4h-16v-2h16v-2h-16z"/><path fill="#EC6FB6" d="M366 220c2 1 2 1 4 4h-2v2h-2v-2h-2l-2 4h-2v2h-2v4h-2v2h-2v2h-2v-4c-2.352.599-4.686 1.27-7 2l-1 2-3 1-.75 2-1.25 2c-3.625.75-3.625.75-7 1v2h2v2h2v2h-4l-1-2-1 2h-2v2h3l-1 4h-3l-1 6h-2v10h-2c-.89 3.303-1.463 6.623-2 10h-2v4h46v1l66 1v1q-20.524.034-41.048.052-9.53.007-19.06.023-9.201.016-18.402.02-3.506.003-7.013.01-4.92.01-9.838.009l-2.917.01c-14.62-.022-14.62-.022-16.722-2.124.467-4.837 1.566-9.162 3.145-13.746.21-.615.422-1.23.64-1.863q.666-1.936 1.343-3.87c.68-1.947 1.348-3.899 2.015-5.851 6.378-18.519 6.378-18.519 11.67-21.545l2.363-1.426L339 237a568 568 0 0 0 5.535-3.729c5.45-3.698 10.898-7.26 16.73-10.333 1.634-.884 3.19-1.908 4.735-2.938"/><path fill="#F667B5" d="M590 229h19c0 7.88 0 7.88-1.207 11.594l-.78 2.433-.826 2.473-.79 2.473c-1.184 3.64-2.428 7.21-3.96 10.718-1.395 3.212-2.54 6.42-3.625 9.747l-1.042 3.183L596 274h-6v-2h4v-4h2v-6h2v-6h2l.438-2.625L602 244l-2-1v-7h-72v-2h16v-2c30.534-1.096 30.534-1.096 45.75-1.125l2.986-.014 2.748.006 2.367.004c2.149.129 2.149.129 4.306.7 1.924.655 1.924.655 3.843-.571l-16-1z"/><path fill="#FE9BE5" d="M495.031 15.87q8.576.006 17.151-.004c25.624-.022 51.211.17 76.818 1.134v2H409l-1-2c29.013-.891 58.005-1.16 87.031-1.13"/><path fill="#F473BC" d="m694.177 98.66 2.13-.002c2.31.002 4.62.025 6.931.049q2.411.009 4.822.013c4.22.011 8.44.04 12.66.074 4.31.03 8.62.044 12.93.06q12.675.05 25.35.146c1.328 4.289.213 7.344-1.203 11.469l-.723 2.173a726 726 0 0 1-1.533 4.54 781 781 0 0 0-2.318 6.931q-.742 2.21-1.489 4.418l-.691 2.087c-1.304 3.782-2.584 6.104-5.043 9.382l2-23h1l1-5h4v-4h-2v-5l-64-1v2h-4l.063 2.937C684 110 684 110 683 111l1 3-4 2 .25 2.812C680 122 680 122 678 123.875L676 125c-1.572-4.716.53-8.433 2.125-13l.898-2.773.922-2.665.829-2.433c3.032-5.265 7.794-5.499 13.403-5.47"/><path fill="#5ABCF1" d="m310.192 15.87 3.723-.009 4.003.006q2.072 0 4.144-.003 4.341-.002 8.682.006 5.526.006 11.051-.004 4.282-.005 8.563 0 3.015 0 6.032-.005c6.933.018 13.73.26 20.61 1.139-.57 6.42-2.673 12.016-5 18-1.703-5.11.628-9.897 2-15h-22v2h-52l-1-5c3.792-.883 7.303-1.127 11.192-1.13"/><path fill="#AA90E4" d="m329 208 1 2h2v-2h11l-1 4h2l1-4h4v2h3v-2l3 1c-4.221 4.678-9.03 7.774-14.375 11.063l-2.5 1.564C324.685 230 324.685 230 322 230v-4h-2l-1 2-2-2 1-2h2v-12h2v-2z"/><path fill="#71BAED" d="M266 109h1c.125 6.75.125 6.75-1 9h4v2h-6v2H140v-6l2 2c2.224.314 2.224.314 4.834.278l3.094.034 3.406.007 3.578.03q4.862.038 9.724.056c3.386.015 6.772.042 10.158.068 6.414.047 12.828.083 19.241.116 7.301.039 14.602.088 21.903.138q22.53.154 45.062.273l.434-2.324c.577-2.73 1.47-5.117 2.566-7.676"/><path fill="#F16EBC" d="m480.125 114.438 2.666.059c9.363.212 18.67.56 28.01 1.291 5.213.345 10.414.357 15.637.337l3.1.012c5.262-.007 10.278-.218 15.462-1.137l-1 5h-4v-2l-2 2c-9.923 2.449-22.1.814-32-1v-1c-3.48.138-6.959.287-10.437.438l-3.01.119-2.862.127-2.65.11c-2.034-.012-2.034-.012-3.041 1.206-2 .04-4 .043-6 0v-2h-50v2h-6v-2l-4-1c9.818-9.818 48.755-2.871 62.125-2.562"/><path fill="#F066B6" d="M384 126c1.135 3.405.849 4.317-.25 7.625l-.766 2.414C382 138 382 138 379 139l5 1v4h-2v-2l-1.703.96c-2.449 1.109-4.38 1.43-7.047 1.665l-2.422.227L369 145l-1 3c-4.954 2.488-10.535 3.419-16 4v4h-2l-.375-2.375c-.416-2.766-.416-2.766-2.625-4.625l2-1 1-3c1.727-1.331 1.727-1.331 3.98-2.672l2.511-1.505 2.697-1.573 2.723-1.612A275 275 0 0 1 384 126"/><path fill="#75A3EF" d="m299 178 2 1c1 3 1 3 0 6l2 2-3 1 1 3c-1.74 1.74-4.194 1.372-6.562 1.563L289 193l-1 13h-8l-1-3-2.25.5c-2.75.5-2.75.5-6.75.5v-2h-2v-2h10v-2l-14 2c3.825-3.06 7.09-5.293 11.313-7.625 6.339-3.527 12.468-7.332 18.532-11.313 1.682-1.08 3.415-2.08 5.155-3.062"/><path fill="#F665B2" d="M624 114h2v8l4-2v2h4v2h-2v2h-2v2h-2l-.437 1.875C627 132 627 132 626 134h-2v-4h-2v2h-2v4h-2v-4h-4v2h-2v2h2v6l2 1-2 3c-2.383.293-2.383.293-5.125.188l-2.758-.083L604 146v3l4-1v2l-6 2v2h-2v2c-5.75 1.125-5.75 1.125-8 0v-12h16v-12h2v-2h-2v-2h4v2l3.188-1c3.812-1 3.812-1 8.812-1z"/><path fill="#5FB3F3" d="M84 68h1l1 8h-2v10h-2v2h4l-1 6-4 1-1-3h-2l1 5-3 1v4h2v2h-2v2h-2c-.244 5.797-.244 5.797 2 11l-3 2c-1.192 2.05-1.192 2.05-2 4h-1v-5h-2c.185 4.342.185 4.342 2 8 .072 2.02.084 4.042.063 6.063l-.028 3.347L70 138h-2v2h-2l-1-5-2 1c-.656 2.527-.656 2.527-1 5l-3-2c5.082-14.955 10.247-29.853 15.865-44.617C78.165 85.67 81.145 76.868 84 68"/><path fill="#F467B3" d="m621 277 1 3h2v2l3.349-.016q6.147-.026 12.294-.039 2.66-.008 5.323-.02c2.549-.013 5.098-.018 7.647-.023l2.406-.015c3.258 0 5.868.075 8.981 1.113 2.498-.385 4.912-.833 7.375-1.375l2-.422c1.876-.396 3.75-.8 5.625-1.203q2.499-.507 5-1c-2.632 3.215-5.647 4.236-9.5 5.625-1.145.425-2.29.85-3.469 1.29-9.954 3.005-20.892 2.242-31.187 2.215-2.499-.005-4.997 0-7.496.007q-2.382 0-4.762-.004l-2.266.006c-5.205-.024-5.205-.024-6.32-1.139-.359-6.462-.359-6.462 2-10"/><path fill="#F964C1" d="M336 282h17v1l31 1v-2h16v2h49l-1 2H320v-2h16z"/><path fill="#A393E2" d="M336 157v3l-3 1-1 3h-2v2h-2v2h2v2l3 1c-1.375 1.5-1.375 1.5-3 3h-2l-1 2h-4l-3 2c-2.918.414-2.918.414-6.187.625l-3.293.227L308 179v2h3v2c-1.875.625-1.875.625-4 1l-2-2-3 1v-3l-2-1c2.898-3.106 5.855-5.337 9.465-7.566l3.174-1.971 3.298-2.025 3.288-2.038c2.92-1.807 5.844-3.61 8.775-5.4l2.662-1.715C333 157 333 157 336 157"/><path fill="#5CB1F3" d="M108 19v3h4v2h16v2h-16v2h17l-1 2a99 99 0 0 1-7.5.563c-4.622-.21-4.622-.21-8.5 1.437-2 .04-4 .043-6 0v-6h-2v4h-4v6h-2v5l4-1v-8h2v11l-3 1-1 2c-2.062.625-2.062.625-4 1l-1-3h-2q1-3.004 2.012-6.004c.756-2.294 1.484-4.59 2.195-6.898L98.5 27l.61-2.033c.609-1.904.609-1.904 1.89-4.967 3-1 3-1 7-1"/><path fill="#8AC2E5" d="M122 176h129v1l-5.86.684c-2.106.265-2.106.265-3.968.828-2.419.543-4.578.61-7.057.608l-2.974.004-3.244-.01h-3.43c-3.744 0-7.488-.009-11.233-.016l-7.785-.005q-9.201-.004-18.401-.021-10.477-.015-20.953-.022-21.548-.016-43.095-.05z"/><path fill="#5AABF6" d="m28 227 3 1-1 5h-2v7h2v6h-2v6h2v4h-4v4h-2v6h-2v2c-3 2-3 2-6 2v2l-3-1 .946-2.64q1.77-4.944 3.534-9.89.757-2.123 1.519-4.245C22.23 245.211 25.279 236.184 28 227"/><path fill="#63B4EF" d="m272 316 3 3c-4.8 11.137-12.708 15.14-22.973 20.742-4.407 2.426-8.564 5.174-12.695 8.043-2.659 1.385-4.376 1.462-7.332 1.215l2-1v-2l6-2v-2h4v-2h3v-2h-3v-2l6-1c0-2.156-.447-3.924-1-6l5 2 1-2 3 1v-2h4v-4h-4v-2h8l1 2 2-2h3z"/><path fill="#F668B4" d="m592 281 1 2c-1.472 3.736-1.472 3.736-4 5-2.355.098-4.713.13-7.07.133l-2.164.003q-2.282 0-4.564-.006c-2.27-.005-4.538 0-6.807.007-9.834.004-19.59-.405-29.395-1.137v-1h5v-4h38v2h-6v2h11v-2h4z"/><path fill="#F169B5" d="M744 141h2c-1.422 5.768-3.061 11.348-5.25 16.875-2.251 5.689-4.219 11.437-6.125 17.25-2.857 8.7-5.933 17.297-9.145 25.871A243 243 0 0 0 722 211c-2-2-2-2-2.125-4.625L720 204h2v-6h2l.438-2.75c.922-5.33.922-5.33 1.562-7.25l2-1c.62-1.847.62-1.847 1-4.062.879-4.352 1.905-8.636 3-12.938h-2v2h-2v-4h2v-2h2l-1-4h-3v-2h6v4h2v-4h2l-.375-2.75c-.074-5.97 3.575-11.175 6.375-16.25"/><path fill="#96DDFE" d="m123.188 15.867 3.809-.003q3.974-.002 7.947.006 5.064.006 10.127-.004c3.247-.004 6.494-.001 9.742.001l3.643-.006c5.944.017 11.667.23 17.544 1.139.625 1.875.625 1.875 1 4l-2 2v-4l-74 1 1-3c7.078-1.096 14.034-1.145 21.188-1.133"/><path fill="#58AEEE" d="M295 28h1v6h2v6h2v-4h2v6h-2v4h-2v14h-2v-4h-2l2-8h-2l-1 3-1-3h-2v8h-2l-2 8-1-2-2-1 1.39-3.734c3.093-8.332 6.155-16.655 8.883-25.114C294 30 294 30 295 28"/><path fill="#5FB0F5" d="M192 358h4v2h2v2l3 1-1 3h4v-2c3.418-2.54 5.758-3.364 10-3-3.996 3.453-8.145 5.806-12.812 8.188-4.636 2.395-9.241 4.813-13.754 7.433l-2.194 1.27q-2.082 1.215-4.15 2.453c-1.654.962-3.369 1.819-5.09 2.656l-3-1c4.75-4 4.75-4 7-4v-2h4v-2h-2v-2h2v-2h2v-5h2l1-3 1.375 1.438c1.558 1.652 1.558 1.652 3.625 2.562v2h-2v2l6-2v-2h-2v-4h-2v-2h-2z"/><path fill="#50B1F9" d="m121 181 2 1c-4.134 12.003-8.302 23.988-12.74 35.882-1.498 4.017-2.933 8.04-4.26 12.118h-2l-1-2h-3v-4h2v-2h2v2h2v-4h-2v-4h-2c-.25-2.812-.25-2.812 0-6 2-1.875 2-1.875 4-3l2 1v4h2l.402-2.137c.612-2.93 1.361-5.79 2.16-8.675l.817-2.958L114 196h2l1-8h-5v-2h8z"/><path fill="#75A2F3" d="M304 224h4v4h2v2h2v-4h2l1-2c3.875.875 3.875.875 5 2h2l1 5-1.788 1.038c-2.68 1.562-5.352 3.137-8.024 4.712l-2.815 1.633-2.705 1.601-2.491 1.46c-2.274 1.625-3.634 3.243-5.177 5.556l-1-5 5-2z"/><path fill="#4FB4F4" d="M770 60c1.125 1.563 1.125 1.563 2 4-1.304 6.304-1.304 6.304-4 9-2.465.274-2.465.274-5.608.306l-3.561.049-3.87.016c-1.31.01-2.62.018-3.97.027q-4.168.025-8.337.028c-3.544.005-7.088.042-10.631.088-3.396.037-6.791.039-10.187.045l-3.833.059c-7.01-.036-12.832-.425-18.003-5.618l-1-3 3-1v2h2v2h6v2l53 1v-3h3v-2l3-1z"/><path fill="#F4C6DF" d="M317 281h1v5h46v1l66 1v1q-20.524.034-41.048.052-9.53.007-19.06.023-9.201.016-18.402.02-3.506.003-7.013.01-4.92.01-9.838.009l-2.917.01c-5.334-.008-10.443-.344-15.722-1.124l-1-4h2z"/><path fill="#F56EBB" d="m415 116 1 2-4 1 8 1v2h-4v2h-4v2c-3.01.934-3.867 1.044-7 0v2h-6v-2l-2.125 1c-3.166 1.101-5.546 1.222-8.875 1l-2-1v-2c9.349-3.967 18.92-7.506 29-9"/><path fill="#F764BB" d="M643 51c8.006 9.15 7.544 22.325 7.154 33.79-.422 6.063-1.427 12.755-4.154 18.21h-2q.427-4.064.875-8.125l.238-2.305c.497-4.43 1.291-8.372 2.887-12.57h-2l-1 3h-1q-.08-4.407-.125-8.812c-.017-.834-.034-1.667-.05-2.526l-.02-2.432-.032-2.237C644 65 644 65 646 62h-2v-4h-2z"/><path fill="#E766C4" d="m418.694 18.88 2.11-.003q3.513 0 7.029.01l5.025-.001q6.837.001 13.673.013c4.759.006 9.518.006 14.278.008q13.524.005 27.05.021 15.396.015 30.79.022 31.675.016 63.351.05v1a602045 602045 0 0 1-70.804.937c-2.732.035-5.463.063-8.196.063q-3.505.474-7 1v-2q-15.424.16-30.85.34-7.16.083-14.322.157-6.906.072-13.81.156-2.641.031-5.282.056-3.686.037-7.37.086l-2.228.017c-3.355-.242-3.355-.242-6.138 1.188-2 .04-4 .043-6 0v-2c2.91-1.455 5.443-1.123 8.694-1.12"/><path fill="#53ACF6" d="M224 336h2v2h2v-2h4v2h8v-2l7 2v2h-3v2h-4v2c-3 2-3 2-6 2l1 4c-3.325 1.108-5.622.845-9 0l-1 2c-.94-3.523-1-6.312-1-10h2v2h2v-2h2v-2h-6z"/><path fill="#EE76B5" d="m716 212 5 1c-3.81 11.627-7.641 23.247-11.812 34.75l-.84 2.359c-1.374 3.735-2.685 6.853-5.348 9.891.38-4.88.801-9.634 2.063-14.375 1.104-3.646 1.104-3.646.937-7.625h2v-2h2v-7h2v-3h2v-6h-2v4h-2v-6h4l1-3z"/><path fill="#F26ABA" d="M746 116h2c.443 18.467.443 18.467-2 25a116 116 0 0 1-3 3c-2.635 4.77-4.441 9.553-5 15-2-1-2-1-2.812-3.312C735 153 735 153 736.438 151.125c2.22-3.02 1.772-5.48 1.562-9.125h2v-6h-2v-4l-2-1 2-3 4 1v5h2l-.07-2.16c-.108-5.724.15-10.438 2.07-15.84"/><path fill="#F36ABA" d="m674 125 1 3h3q.079 2.593.125 5.188l.07 2.917c-.204 3.023-.926 5.163-2.195 7.895h-2l1 5c-3 1-3 1-7 1v4c-1.375 1.75-1.375 1.75-3 3h-2c2.097-7.327 4.549-14.477 7.188-21.625l1.115-3.043q1.344-3.667 2.697-7.332"/><path fill="#8398EC" d="m299 178 2 1c1 3 1 3 0 6l2 2-3 1 1 3c-1.71 1.71-4.04 1.328-6.375 1.5-3.145.232-5.621.499-8.625 1.5v-2h2v-2h-4v2h-4c1.43-4.288 4.636-5.433 8.375-7.562l4.086-2.38 1.837-1.052c1.602-.947 3.154-1.974 4.702-3.006"/><path fill="#63A8E8" d="M274.188 197.938 278 198v2c-7.75 1.125-7.75 1.125-10 0v2h2v2h2v2h4v2l-3.437-.562L269 207l-1 1a86 86 0 0 1-4.562.563l-2.504.253L259 209l-1-3h-2l-.437 1.875C255 210 255 210 254 212h-3l-1 2h-6l-1 2v-4c1.45-1.324 1.45-1.324 3.473-2.473l2.228-1.287 2.362-1.303 2.279-1.314c13.716-7.802 13.716-7.802 20.845-7.685"/><path fill="#5CB5F2" d="M45 178h2l-1 4h2l-1 7-3 1c-1.217 2.434-1.32 4.418-1.562 7.125l-.254 2.758L42 202h-2v4h-2v2h4v-4h2v10h-2v4h-2v-4h-2l-1-2-1 2h-2l-1 4c-1-2-1-2-.328-4.285l1.078-2.778c1.898-4.936 3.596-9.915 5.25-14.937l1.605-4.816.791-2.373z"/><path fill="#50B1F4" d="m357 71 2 2c-7.603 22.095-7.603 22.095-11.312 32.125l-1.364 3.695c-1.229 2.951-2.484 5.566-4.324 8.18h-2v-5h2l.938-3.437C344 105 344 105 345 104c.204-3.767.347-7.527.43-11.299.292-7.502.292-7.502 3.57-10.701l1 4h2v-6h2v-4h2z"/><path fill="#F165B7" d="M659 167h1v7h2v-4h2l-1 6h3v2h-2v4h-4v8l-5 1v3l-3 2v-2l-2-1z"/><path fill="#8DCCFE" d="M779.54 20.379c2.763 3.067 3.278 6.595 3.46 10.621-.375 3.063-.375 3.063-1 5h-2l-.078-2.012c-.274-4.258-.529-7.3-2.672-11.05-2.484-2.14-4.016-2.669-7.25-2.938v-2q-6.968.178-13.934.372-2.37.066-4.74.125-3.408.088-6.814.187l-2.14.05c-3.038.092-5.468.298-8.372 1.266-2.333.04-4.667.044-7 0v-2c15.714-3.379 38.537-7.576 52.54 2.379"/><path fill="#FB8FCF" d="M555 228h52l-1 4h-2l-1 2-2 1-1-3-1.854.016c-14.75.108-29.418-.204-44.146-1.016z"/><path fill="#F369B8" d="M636 233c2 2 2 2 2.125 5.625L638 242h-2v14l-5 1v3h-2l1 2c.134 2.672.043 5.323 0 8h-2v-4l-3-1c2.097-7.327 4.549-14.477 7.188-21.625l1.115-3.043q1.344-3.668 2.697-7.332"/><path fill="#BEEBFE" d="M304 16q12.062-.035 24.124-.052 5.603-.007 11.205-.023 5.418-.016 10.835-.02 2.055-.003 4.111-.01c7.641-.03 15.141.126 22.725 1.105-.57 6.42-2.673 12.016-5 18-1.82-5.46.947-10.867 3-16h-27v-1l-44-1z"/><path fill="#6EB7E7" d="m305 155 4 1c-7.757 6.099-16.128 10.184-25.094 14.151-1.551.691-3.09 1.41-4.625 2.138C271.497 175.781 261.556 178 253 178v-3c.57-.105 1.138-.21 1.725-.32 2.614-.489 5.226-.99 7.838-1.493l2.712-.501c4.067-.79 7.845-1.605 11.627-3.323C280 168 280 168 284 168v-2h6v-2l6-2v-2h4l1-4 4 1z"/><path fill="#ED86BB" d="M590 229h19c0 7.88 0 7.88-1.207 11.594l-.78 2.433-.826 2.473-.79 2.473c-1.184 3.64-2.428 7.21-3.96 10.718-1.395 3.212-2.54 6.42-3.625 9.747l-1.042 3.183L596 274h-6v-2h4v-4h2v-6h2v-6h2c.551-3.228 1.052-6.435 1.438-9.687C602 243 602 243 604 240h2l-.125-3.312C606 233 606 233 608 230h-18z"/><path fill="#D984C9" d="M352 196h2v2h2v4l6-2v-2l13-1c-2.374 2.374-4.245 3.93-7.012 5.7l-2.295 1.474-2.38 1.513-2.417 1.55A2066 2066 0 0 1 355 211c-1.523-1.336-1.523-1.336-3-3 .375-2.625.375-2.625 1-5l-1-1c-.04-2-.043-4 0-6"/><path fill="#B787D6" d="M336 157v3l-3 1-1 3h-2v2h-2v2h2v2l3 1c-1.375 1.5-1.375 1.5-3 3h-2l-1 2h-4l-3 1c-2.187-.937-2.187-.937-4-2v-1l5-1c1.52-4.916 1.52-4.916 2-10 2.082-1.605 2.082-1.605 4.813-3.187l2.707-1.606C333 157 333 157 336 157"/><path fill="#9C93E3" d="M320 212h6v4l5 1v1h-5l1 2h7v2h-4v2h-4l-1 5-3 1v-4h-2l-1 2-2-2 1-2h2z"/><path fill="#FFA0D4" d="M560 74v2h4l1 5-2.875-1.875c-10.191-5.685-22.613-4.469-33.914-4.54q-2.871-.027-5.742-.058c-5.007-.05-10.014-.09-15.022-.128-5.122-.04-10.243-.091-15.365-.141Q477.041 74.114 462 74v-1q17.838-.266 35.675-.495 8.283-.104 16.566-.229 7.995-.119 15.989-.214 3.049-.038 6.098-.088c2.848-.046 5.697-.08 8.546-.11l2.541-.05c4.61-.033 8.244.415 12.585 2.186"/><path fill="#7FC6EF" d="m290 266 3 1-.538 1.608q-2.07 6.199-4.11 12.408c-2.913 8.845-5.86 17.64-9.309 26.293-1.112 2.869-2.09 5.766-3.043 8.691h-2v-8h2v-4h2v-4h2l-.187-2.375c.25-4.825 1.672-9.062 3.187-13.625h3v-6h2v-6h2z"/><path fill="#F67CC9" d="m492 115 3.969.219c10.324.537 20.63.887 30.969.906l3.027.014c5.12-.01 9.99-.255 15.035-1.139l-1 5h-4v-2l-2 2c-9.923 2.449-22.1.814-32-1v-1l-2.555-.148-3.32-.227c-1.09-.07-2.181-.14-3.305-.21C494 117 494 117 492 115"/><path fill="#EC67B4" d="m572 76 1 2h3l-.562 3.188c-.395 3.436-.17 5.516.562 8.812l-1 3v4c-.304 1.672-.631 3.34-1 5h-2V86h-2v10l-1-2h-2l.125-3.687c.019-3.575-.712-6.017-2.125-9.313l1-3v2h2v2h2v-2h2z"/><path fill="#61B1F0" d="M279 71h1v9h2v8h-2v4h-2v4l-4 2v-2h-3c2.435-8.412 5.201-16.704 8-25"/><path fill="#55AFF3" d="M25 236h2l-.5 3.625c-.44 3.48-.588 6.863-.5 10.375h-2v2l-2 1a129 129 0 0 0-2 7h2v4h2v2h-2v2c-3 2-3 2-6 2v2l-3-1 .994-2.782q1.828-5.12 3.65-10.243l1.58-4.429q1.139-3.186 2.272-6.374l.714-1.992c1.076-3.034 2.094-6.035 2.79-9.18"/><path fill="#F4A2D0" d="M687 99h72l1 4-3-1c-2.253-.118-4.51-.177-6.766-.205l-2.07-.03q-3.385-.047-6.77-.081l-4.695-.063q-6.177-.082-12.354-.153-6.304-.077-12.609-.161Q699.37 101.145 687 101z"/><path fill="#F68ACA" d="m499 171 1 3-3.183-.092q-7.377-.21-14.755-.408l-2.678-.074c-12.104-.33-24.187-.545-36.296-.301l-2.795.035-2.39.051C436 173 436 173 434 171c21.726-.764 43.28-1.247 65 0"/><path fill="#FB61B3" d="M422 189h2v4l-3 1-.25 2.875c-.75 3.125-.75 3.125-2.812 4.5L416 202v-4h-2l2 8h-2v-2h-4v2l-6-1 2-1v-2h4v-2h2v-2h-4v-2h4l1-3c1.813-.66 1.813-.66 4-1.062 2.14-.365 2.14-.365 4-.938z"/><path fill="#57AEF6" d="M236 224h2v4h-2v4l3-1-2 6 2 2c-1 1-1 1-3.812 1.188-4.977-.293-4.977-.293-7.188-2.188-.955-2.66-1.46-5.208-2-8h2v2h2v-4h2v2h2v-4h2z"/><path fill="#9BC8EB" d="M90 266h3c-.182.534-.364 1.067-.55 1.617l-.763 2.258-.835 2.473c-1.101 3.429-2.017 6.902-2.91 10.39-1.279 3.071-2.15 4.37-4.942 6.262-3.43.486-6.795.376-10.25.25l-2.836-.055q-3.459-.07-6.914-.195v-3h21v-6h2v-6h2v-3h2z"/><path fill="#EE67B0" d="M394 204c1.245 2.49.777 3.41 0 6h2v4h-2v4h-4v-2h-6v-2h8v-2h-2v-3l-2.312 1.5C385 212 385 212 382 212v2h-2v2h-3l-1 2-1-2c2.755-2.94 5.468-5.083 8.938-7.125l2.527-1.508c2.461-1.327 4.92-2.384 7.535-3.367"/><path fill="#7DC2F1" d="m368 36 1 2 2 1-11 31h-2v-9h-2v-3h5l.313-1.562C362 54 362 54 363.375 50.938c2.127-4.799 3.331-9.865 4.625-14.938"/><path fill="#F798CE" d="m621 277 1 3h2v2h8v2h-3v2l-3 1h30v1q-7.663.037-15.326.055-2.609.008-5.218.02c-2.494.013-4.989.018-7.483.023l-2.37.015c-1.869 0-3.736-.051-5.603-.113-1-1-1-1-1.187-4.375C619 280 619 280 621 277"/><path fill="#EE79BD" d="M328 246c1.125 3.75 1.125 3.75 0 6h3l-1 4h-3l-1 6h-2v10h-2c-.89 3.303-1.463 6.623-2 10h-2l-1 2h-2c2.362-8.34 5.245-16.475 8.188-24.625l1.404-3.91q1.701-4.733 3.408-9.465"/><path fill="#75BCEC" d="m121 181 2 1c-8.52 24.983-8.52 24.983-13 35h-2v-5h2l.402-2.137c.612-2.93 1.361-5.79 2.16-8.675l.817-2.958L114 196h2l1-8h-5v-2h8z"/><path fill="#BF8CD2" d="M345 208h4v2h3v-2l3 1c-6.125 6.125-6.125 6.125-12.562 6.563l-3.63.253L336 216v2h-4v-2h-2v-2h6v-2h8z"/><path fill="#E886BF" d="m733 172 2 3c-.536 2.353-.536 2.353-1.633 5.121l-1.195 3.088-1.297 3.228a3092 3092 0 0 0-2.445 6.247l-1.224 3.124c-1.894 5.012-3.563 10.094-5.206 15.192-2-2-2-2-2.125-4.625L720 204h2v-6h2l.438-2.75c.922-5.33.922-5.33 1.562-7.25l2-1c.58-1.918.58-1.918.938-4.187.797-3.993 2.048-7.243 4.062-10.813"/><path fill="#5AA8FD" d="M164 20h2v4l6-1v3h-44v-2h36z"/><path fill="#59ADEB" d="m67 121 .938 1.938c.897 1.998.897 1.998 2.062 3.062.072 2.02.084 4.042.063 6.063l-.028 3.347L70 138h-2v2h-2l-1-5-2 1c-.656 2.527-.656 2.527-1 5l-3-2 5-14h2v3c1.356-1.125 1.356-1.125 1.063-4.062z"/><path fill="#7FA8EC" d="M314 224c4.875.875 4.875.875 6 2h2l1 5q-2.682 1.757-5.375 3.5l-3.023 1.969C312 238 312 238 310 238v-2h2v-2h-2v-2h2v-6h2z"/><path fill="#F086BF" d="m421 193 3 1c-5.764 17.638-5.764 17.638-9.254 26.008-.981 2.62-1.454 5.215-1.746 7.992-2.624-3.061-3-3.732-3-8h2v-4h2v-8h3l1-6h2l-.062-3.937A59 59 0 0 1 420 194z"/><path fill="#F46BB6" d="M578 150h6v2h5l3 6h-2v2h-12v-2l6-1v-3l-8 2v-4h2z"/><path fill="#4BADDE" d="M112 19h63l-2 5h-7v-4h-54z"/><path fill="#FC61BB" d="M646 80h2l-.402 3.184C646.682 90.45 645.78 97.717 645 105h-2l-1 3h-2c-.1-3.52.296-6.56 1-10q.158-2.125.313-4.25c.512-5.078 2.393-9.237 4.687-13.75"/><path fill="#4FACF1" d="M182 366h2v2h2v2h-2v2h-2v2h2v2h-4v2c-5.412 4-5.412 4-8 4 .468-4.056.88-7.466 3-11l5 1v-4h2z"/><path fill="#F569BA" d="M366 220c2 1 2 1 4 4h-2v2h-2v-2h-2l-2 4h-2v2h-2v4h-4l-1-2-5 1v-2a139 139 0 0 1 7.313-4.5l4.113-2.406 1.856-1.073c1.605-.954 3.164-1.985 4.718-3.021"/><path fill="#80B8DC" d="M122 176h54v1l-53 2z"/><path fill="#A491D8" d="m329 208 1 2h2v-2h11l-1 4h-6v2h-10v-2h-4v-2z"/><path fill="#7AC1F1" d="m102 230 3 4-1.27 2.816c-2.114 4.935-3.748 10.023-5.418 15.121l-.97 2.94Q96.167 258.437 95 262h-2c-.552-5.245 1.029-8.874 3.043-13.586 1.101-2.777 1.645-5.446 1.957-8.414h2l.438-2.187z"/><path fill="#E673C0" d="M368 190h10v2h2v-2h4c-1.215 3.646-2.788 4.367-6.078 6.148-2.593 1.15-5.112 1.578-7.922 1.852v-2h-2v-2h2v-2h-2z"/><path fill="#66B7F2" d="M57 144h2l1 8h-2l-2 12h-4v8c-2-1-2-1-2.728-2.724-.356-2.981.362-4.878 1.38-7.698l1.104-3.105 1.181-3.223 1.17-3.27Q55.54 147.985 57 144"/><path fill="#CF74AA" d="M687 101q13.638-.07 27.277-.104 6.332-.014 12.665-.047 6.108-.032 12.216-.039 2.333-.005 4.667-.021c2.174-.015 4.348-.017 6.522-.016l3.755-.014C757 101 757 101 759 103v3l-3 1v-5h-69z"/><path fill="#56B6EF" d="m223 235 3 1-.437 2.063a96 96 0 0 0-1 6.562C224 248 224 248 222 251a70 70 0 0 0 1 4l-1 3h-2c-2.359-8.553-.703-15.082 3-23"/><path fill="#EF73BA" d="m701 259 2 3-7 9-4-4-2-1v-2h-2v-2h4v2h2v-4h4v2h2z"/><path fill="#F69AC9" d="m592 281 1 2c-1.472 3.736-1.472 3.736-4 5-2.178.086-4.36.107-6.54.098l-3.944-.01-4.141-.026q-2.082-.008-4.164-.013A3988 3988 0 0 1 560 288v-2h27v-2h4z"/><path fill="#5CABF2" d="M215.063 271.938 218 272v4h-2v4h-2v2h-2v2h-4l-1 4-2-2 2-5h2l1-2 2 1-.562-3.437L211 273c1-1 1-1 4.063-1.062"/><path fill="#73B7EA" d="M326 136h3c-1.59 3.921-4.285 6.583-7.25 9.5l-1.41 1.434c-3.223 3.205-6.513 5.666-10.34 8.066l-2-2h2v-3h4v-2h2v-4h4l1-4h3v-2h2z"/><path fill="#7BC6EB" d="m349 91 3 1c-2.355 8.825-5.893 16.862-10 25h-2v-5h2l.875-3.187c.903-3.06 1.932-5.867 3.125-8.813a632 632 0 0 0 3-9"/><path fill="#FB58B5" d="M570 86h2v18h-4v2h-2v2h-2v-4h2v-2h2l-1-8h2z"/><path fill="#F967BA" d="M398 68h34v2l-34 1z"/><path fill="#86CDFD" d="m12 274 2 1-2 9h2v-2h2l1 3 11 2v1q-4.187.04-8.375.063l-2.406.025c-5.992.025-5.992.025-8.219-1.088.549-4.571 1.417-8.674 3-13"/><path fill="#EE73B6" d="M643 105h2c-2.138 7.244-5.227 13.467-9 20h-1l1-9h-2l1-4h4l.875-1.812C641 108 641 108 643 105"/><path fill="#F962B5" d="m397 173 1 3h2v2h-4v2h-8v4h-4v-6h2v-2h4v2h2v-2l3 1z"/><path fill="#FB62B4" d="M480 26h17l-1 4h-16z"/><path fill="#82C3ED" d="M279 171c-6.07 6.07-17.959 6.015-26 7v-3c3.206-.676 6.415-1.34 9.625-2l2.738-.578c4.619-.944 8.893-1.674 13.637-1.422"/><path fill="#EA8AC3" d="M643 51c6.086 6.955 6.573 15.174 7 24h-2v-6h-2v-7h-2v-4h-2z"/><path fill="#61B7F1" d="m92 46 4 2c-.506 2.169-1 4-2 6h-2v8l-1.937.375L88 63l-1 2-2-1z"/><path fill="#F45FA9" d="M572 102h4l-2 8h2v2l-2.437-.562L571 111l-1 1c-2 .04-4 .043-6 0l1-2h2l1-6h4z"/><path fill="#F171B6" d="M595 273c-.453 4.874-1.709 7.39-5 11v-4h-2v2h-2v2h-2v-6h5v-4c2.076-.553 3.844-1 6-1"/><path fill="#919DEB" d="m299 178 2 1c1 3 1 3 0 6l2 2-3 1v2h-4v-6h-2v-3c2.375-1.75 2.375-1.75 5-3"/><path fill="#EE89C1" d="M684 280c-8.986 4.915-16.154 8.26-26.348 5.508L656 285v-1c.58-.08 1.16-.16 1.757-.244 2.644-.37 5.287-.75 7.93-1.131l2.764-.383C683.96 279.986 683.96 279.986 684 280"/><path fill="#6CC1FB" d="M25 236h2l-.5 3.625c-.44 3.48-.588 6.863-.5 10.375h-2v2l-2 1a161 161 0 0 0-3 7l-2-1 .627-1.68q1.408-3.784 2.81-7.57l.987-2.645.947-2.558.873-2.349A62 62 0 0 0 25 236"/><path fill="#EE8CC1" d="M744 141h2c-2.039 8.27-4.823 16.101-8 24h-1c.033-9.334 2.336-15.956 7-24"/><path fill="#48AFED" d="M710 68h4v2h49v1q-10.84.037-21.68.055-3.69.008-7.38.02c-3.53.013-7.059.018-10.588.023l-3.35.015h-3.093l-2.732.007C712 71 712 71 710 70z"/><path fill="#5BADEE" d="M102 32h2v11l-3 1-1 2c-2 .688-2 .688-4 1-1-1-1-1-1.25-3.312.291-3.129 1.194-4.375 3.25-6.688l1 4 3-1z"/><path fill="#61B2EF" d="m28 227 3 1-1 5h-2v7h2v6h-2v2h-2c-.772-4.374-1.124-7.707 0-12q.537-2.405 1.063-4.812.467-2.094.937-4.188"/><path fill="#70B3E7" d="m338 118 3 1c-2.582 5.451-5.381 10.175-9 15l-2-2v-4h2v-4h4z"/><path fill="#67B4EE" d="M226 350h5c-1 3-1 3-3.285 4.387l-2.778 1.3-2.785 1.325L220 358l-2-2h2v-2h-4l1-3 9 1z"/><path fill="#6BAAF2" d="M306 234h6v2h-2v3c-1.68 1.281-1.68 1.281-3.875 2.5-3.063 1.713-4.105 2.47-6.125 5.5l-1-5 5-2v-4h2z"/><path fill="#FC59AD" d="M643 217h2l1 7h2v4h-2l-1 2h-3q-.04-2.97-.062-5.937l-.036-3.34C642 218 642 218 643 217"/><path fill="#D174BC" d="m343 150 5 3-2 2 2 1v4h-4v-3l-6 1c0-3 0-3 2.5-5.687z"/><path fill="#6EBEEA" d="M280 294h1c.378 6.177-.222 10.337-3 16a247 247 0 0 0-2 6h-2v-8h2v-4h2v-4h2z"/><path fill="#F18ACB" d="m648 82 2 1c-.386 7.115-1.391 13.354-4 20h-2q.424-4.126.875-8.25l.238-2.355c.791-7.12.791-7.12 2.887-10.395"/><path fill="#F392C6" d="m572 166 3 2c-9.693 2.675-18.888 4.654-29 5l1-2c2.871-.598 2.871-.598 6.438-1.062 4.429-.479 4.429-.479 8.562-1.938a95 95 0 0 1 5.125-.062l2.758.027L572 168z"/><path fill="#EC70B8" d="M390 65h2v5h4v-2h2v3l9 1v1q-4.219.29-8.437.563l-2.432.17c-2.042.129-4.086.202-6.131.267-1-1-1-1-1.125-3.937C389 67 389 67 390 65"/><path fill="#62BDE9" d="M185 347h1v9h-2v2h-2v6l-3-1c.732-6.006 2.644-10.966 6-16"/><path fill="#EA74B7" d="M656 176h2v4h-2v8h-2l1 6-3 2v-2l-2-1z"/><path fill="#F189BE" d="m608 149 2 2c-5.493 3.815-10.95 7.14-17 10l-2-2 1-3h8v-2h2v-2z"/><path fill="#C984CF" d="M352 196h2v2h2v8h3c-1 3-1 3-3.062 4.188L354 211c-2-3-2-3-1.562-5.625L353 203l-1-1c-.04-2-.043-4 0-6"/><path fill="#52B1E9" d="M86 76h2v4l3 1-1 15h-2V84h-2z"/><path fill="#6AB7F1" d="M204 289c1.055 1.828 1.055 1.828 2 4-.875 2.75-.875 2.75-2 5h2v5l-5 1c-1.434-3.788-.51-6.065.938-9.75l1.152-2.984z"/><path fill="#4FAEFB" d="M104 26h2v6h-4v8l-5 2 1-6h2v-6h4z"/><path fill="#86CDF6" d="M192 374a1041 1041 0 0 1-7.812 4.563l-2.237 1.326-2.158 1.24-1.984 1.158C176 383 176 383 173 382c4.75-4 4.75-4 7-4v-2a211 211 0 0 1 3.75-1.562l2.11-.88c2.463-.642 3.734-.248 6.14.442"/><path fill="#E576C6" d="m347 147 3 1v8h2v4h-2v-2l-5-2v-3h2l-3-2v-2z"/><path fill="#5CA8FD" d="M90 64h2v5l4-1v2h-2v10l-2 1-2-1v-2h2v-6h-2z"/><path fill="#EE73B5" d="m408 18 4 2h-2v2h7l-1 2h-6v2h-4v2l-2-1z"/><path fill="#F176BB" d="M674 125c2 3 2 3 2 5h-2v6l2 1-1 3-6-1z"/><path fill="#F496C6" d="M560 74v2h4l1 5-2.875-1.875C557.669 76.545 553.04 75.771 548 75v-2c4.69-1.117 7.538-.806 12 1"/><path fill="#6DB5EA" d="m701 64 1 2h2v2h6v2h2v2c-2.507.924-3.6 1.169-6.105.11l-2.082-1.36-2.106-1.328C700 68 700 68 699 65z"/><path fill="#7BBAED" d="m297 247 3 1-5 15h-2l-1-5h2l.375-2.125c.663-3.052 1.597-5.928 2.625-8.875"/><path fill="#6CB8ED" d="M106 220h3l-3 10h-2l-1-2h-3v-4h2v-2h2v2h2z"/><path fill="#6FB3EF" d="M84 68h1l1 8h-2v8h-5l.586-1.723C81.18 77.547 82.669 72.812 84 68"/><path fill="#6AB9F6" d="M213 263h2v4h-2v3h3v2l-4 1v7l-5 1z"/><path fill="#5DADF1" d="M328 128h2l1 7c-4.293 1.263-6.878.63-11-1v-5l1.188 1.5c2.363 1.956 3.826 1.742 6.812 1.5z"/><path fill="#4FABEC" d="M128 116h8v4h2v-2h2v4h-2v2h-4v-6h-6z"/><path fill="#EC76B8" d="M684 100h3l1 4h-4v6h-2l-1 2-2-2q.965-2.22 1.938-4.437l1.09-2.497C683 101 683 101 684 100"/><path fill="#72B9EA" d="M289 44h1v12h-2l-2 8-1-2-2-1z"/><path fill="#EC6BB3" d="m615 143 4 1c-5.453 5.879-5.453 5.879-9.246 6.176-2.192-.301-2.192-.301-5.754-1.176v-3h10z"/><path fill="#EB6FBC" d="m384 126 1 3-3 3v-2h-2v6h-4v-2h2v-2h-3v-2z"/><path fill="#55B0F9" d="M356 58a100 100 0 0 1 5 0l1 1c-.086 1.996-.086 1.996-.375 4.438l-.273 2.433C361 68 361 68 360 70h-2v-9h-2z"/><path fill="#62B5F7" d="m31 218 1 4h2v2h3l-1 4h2v2h-5l-.875-2.437c-.858-2.696-.858-2.696-3.125-3.563z"/><path fill="#E66EBA" d="M378 182h2v2h2v-2h2v2h4v2l-1.875.375c-2.316.497-2.316.497-4.125 2.625l-6-3v-2h2z"/><path fill="#948DDD" d="M303 176c2.5 1.375 2.5 1.375 5 3v2h3v2c-1.875.625-1.875.625-4 1l-2-2-3 1v-3l-2-1z"/><path fill="#EB61B0" d="M665 155h1v5h-2v4h-2v10h-2c-.404-6.459.408-11.061 3-17h2z"/><path fill="#E76AAE" d="M614 132h4c-.875 4.875-.875 4.875-2 6l1.5 1.375C619 141 619 141 619 143l-5-1v-6h-2v-2h2z"/><path fill="#7EBEEB" d="m357 71 2 2-6 17h-1V80h2v-4h2z"/><path fill="#EE60AC" d="M649 201h1c.185 10.558.185 10.558-1 15l-1-2h-3l1-8 3-1z"/><path fill="#F08CC3" d="m733 172 2 3a82 82 0 0 1-2.875 8.188l-.895 2.271A557 557 0 0 1 729 191h-2c1.09-6.865 2.902-12.775 6-19"/><path fill="#4FAEEA" d="M775 40c1.117 1.672 1.117 1.672 2 4-.68 2.578-.68 2.578-1.875 5.25l-1.18 2.703L773 54h-1l-.437-3.187A143 143 0 0 0 770 42l2-1 1 4z"/><path fill="#F37ABF" d="M610 23c4.234 1.31 8.074 2.944 12 5-2.76 1.804-3.89 2.013-7.25 1.625L612 29v-2l-2-1z"/><path fill="#81BEEC" d="M90 266h3l-.586 1.723C90.82 272.453 89.331 277.188 88 282c-2-2-2-2-2.125-5.125L86 274h2v-3h2z"/><path fill="#F864B3" d="M417 168c2.375-.187 2.375-.187 5 0l2 3c-8.429 3.429-8.429 3.429-13 3l-1-2h6z"/><path fill="#E97BB8" d="M590 229h19c0 7.875 0 7.875-2 11h-1c-.25-6.625-.25-6.625 2-10h-18z"/><path fill="#FC5CB6" d="M390 209v3h2v2h-8v2h-4v-2h2v-2c5.75-3 5.75-3 8-3"/><path fill="#68B0F5" d="m251 207 2 2 2 1-1 2h-3l-1 2h-6l-1 2v-4c1.75-1.484 1.75-1.484 4-2.75l2.25-1.297z"/><path fill="#EF68BB" d="M434 166h8v2c-3.527 2.351-5.029 2.214-9.187 2.125l-3.293-.055L427 170v-2h7z"/><path fill="#EE69B1" d="M624 267h2c1.206 2.332 2.165 4.496 3 7-4.625 3-4.625 3-8 3z"/><path fill="#FB58B2" d="M620 32h4v2l4-1v3h-2v4h2v2l-4 1v-7h-2v-2h-2z"/><path fill="#55ACF5" d="M204 310c2.125.938 2.125.938 4 2l-1 2a76 76 0 0 0 1 5l-4 2 .125-2.75c-.12-3.128-.516-4.636-2.125-7.25z"/><path fill="#5FA8F0" d="M218 260h2v8h-4v2h-3v-3h2l-1-6h2v5h2z"/><path fill="#6AA4F7" d="M268 200h12l-2 4-2.312-.562c-2.778-.666-2.778-.666-5.688.562v-2h-2z"/><path fill="#E95DA7" d="M422 189h2v4l-3 1-2 3-7-2c2.583-3.3 4.992-3.39 9-4z"/><path fill="#58A7F0" d="M310 146h4v4h-4v5h-5l-1 2v-3h2v-2h2v-4h2z"/><path fill="#F585C7" d="M435 114h8l-3 2 8 1v1h-20v-1h7z"/><path fill="#89CBFA" d="m776 21 5 1c2.48 9.41 2.48 9.41 1 14h-2l-.113-2.012c-.377-5.058-.7-8.83-3.887-12.988"/><path fill="#60B0F4" d="M49 168h1v6l4 1-1 4-5-1c-1.158-4.054-.837-6.218 1-10"/><path fill="#7FCDF9" d="m779 37 2 3a63 63 0 0 1-2.375 7.188l-.75 1.982A423 423 0 0 1 776 54h-2c.538-6.182 2.546-11.327 5-17"/><path fill="#86C7F4" d="M372 17h5c-.57 6.42-2.673 12.016-5 18-1.827-5.482 1.142-11.693 3-17z"/><path fill="#71B8E8" d="m290 266 3 1-5 15h-2v-4h2v-6h2z"/><path fill="#A688CF" d="M324.438 164.25 326 165l-4 4-2-1v4h-2v-2h-3v-2c6.4-4.062 6.4-4.062 9.438-3.75"/><path fill="#ED65B0" d="M666 164h4v12h-2v-6h-2z"/><path fill="#61ADF2" d="m283 64 1 2h2v8h-2v-4h-2l-1 4c-1.011-2.73-1.046-3.86-.125-6.687C282 65 282 65 283 64"/><path fill="#51B1E8" d="M356 48h2c.236 5.778-.132 10.513-2 16h-2v-8h2z"/><path fill="#5EA9E6" d="m296 241 3 1 1 5-3 1-1 2h-2v-4h-2v-2h4z"/><path fill="#F494C6" d="M429 173v1l-3.29.586-4.335.789-2.16.383C415 176.53 411.04 177.534 407 179v-2c7.3-4.226 13.688-4.463 22-4"/><path fill="#DF6FB7" d="m349 146 3 1v3h7c-3 2-3 2-7 2v4h-2l-.375-2.375c-.416-2.766-.416-2.766-2.625-4.625l2-1z"/><path fill="#F68BC4" d="M749 122h1c1.816 6.809-.325 11.65-3 18-1.314-3.748-.758-6.818-.125-10.687l.555-3.512C748 123 748 123 749 122"/><path fill="#5BAFE7" d="M104 19h4v3h4v2h-2v2h-2v-2h-4c-.562-1.937-.562-1.937-1-4z"/><path fill="#F07DC4" d="M688 262h4v2l7 2c-1.75 3.875-1.75 3.875-4 5l-1-3c-2-1.209-2-1.209-4-2v-2h-2z"/><path fill="#F08AC1" d="m707 245 2 3c-.898 2.918-.898 2.918-2.375 6.188l-1.46 3.292L704 260c-.957-3.035-1.009-4.995-.187-8.062.17-.672.342-1.344.519-2.036C705 248 705 248 707 245"/><path fill="#69BAF1" d="M63 127h2l1 7-3 2c-.73 2.563-.73 2.563-1 5l-3-2z"/><path fill="#70BBF7" d="M266 109h1c.125 6.75.125 6.75-1 9h4v2h-6c-.955-2.17-1.144-3.563-.398-5.824.757-1.744 1.574-3.462 2.398-5.176"/><path fill="#5DACE8" d="m269 105 1.375 1.5c1.501 1.726 1.501 1.726 3.625 1.5v4h-2v2h-2v-4h-2l-1 4v-7h2z"/><path fill="#F567B9" d="M391 62h2v2h3v2h2v2h-2v2h-4z"/><path fill="#F466AE" d="M576 28h16v2c-1.916.196-3.833.381-5.75.563l-3.234.316c-2.657.107-4.516-.06-7.016-.879z"/><path fill="#F375C3" d="M595 18v2h-3v2c-1.625.688-1.625.688-4 1-3.25-1.437-3.25-1.437-6-3v-1c4.386-.702 8.558-1.108 13-1"/><path fill="#81C8F2" d="M214 361c-4.013 3.511-8.21 5.765-13 8l-2-2 5-1v-2c3.418-2.54 5.758-3.364 10-3"/><path fill="#ED6CB5" d="M596 244h2v4h2v8h-2v-4h-2z"/><path fill="#F07BBB" d="M633 241h1v9h-2v6h-2c-1.434-3.788-.51-6.065.938-9.75l1.152-2.984z"/><path fill="#58ADFA" d="m261 201 5 1v2h-2v2h5l-1 2h-6c-1.062-1.812-1.062-1.812-2-4z"/><path fill="#70BEF2" d="M57 144h2l1 8h-2l-2 3-2-2z"/><path fill="#4AB1F0" d="M230 228c2.152 3.228 2.2 4.284 2 8l-4 2-2-8h2v2h2z"/><path fill="#8F96DA" d="M318 224h8l-1 5-3 1v-4h-2l-1 2-2-2z"/><path fill="#9194E1" d="m300 183 3 4-3 1v2h-4v-6z"/><path fill="#4BA9F1" d="m155 56 2 1 1-1 1 2h2l-2 6h-6l1-2c2.563-.625 2.563-.625 5-1l-6-3z"/><path fill="#57B0E4" d="M296 48h2v12h-2v-4h-2z"/><path fill="#48B1FB" d="M362 40h4v7l-4 1z"/><path fill="#E86BAE" d="M584 278h7v6l-1-4h-2v2h-2v2h-2z"/><path fill="#EE6BB7" d="M672 278h11c-4.15 3.112-6.008 3.52-11 4z"/><path fill="#F191C1" d="m712 226 4 1-4 12h-2c.502-3.73 1.056-7.358 2-11z"/><path fill="#DA72D3" d="M362 198h6v2l-6 2v2l-3 1-1-2 2-3h2z"/><path fill="#EC7EB8" d="m425 188-1 4v-3h-2l-1 3-8 1c3.556-3.95 6.613-6.796 12-5"/><path fill="#40AEFA" d="M294 158h4v2h-2v2l-6 2v2h-2v-4h4v-2h2z"/><path fill="#EF71BE" d="M647 69h1v6h2v8l-2-1v-2h-2z"/><path fill="#54B2E6" d="m87 63 3 1-1 5-3 1-1 4v-9h2z"/><path fill="#D775CE" d="M356 192h2l-1 3 3 1v2h-2v2h-2v-2h-2v-2h-2v-2h4z"/><path fill="#A28BD3" d="m314 174 1 2h5v2l-13 1 2-3c2.625-.187 2.625-.187 5 0z"/><path fill="#F668AE" d="M570 160c1.875-.328 1.875-.328 4-.25.701.015 1.403.03 2.125.047C578 160 578 160 580 161v2c-7.826 1.391-7.826 1.391-12 0z"/><path fill="#E66DAE" d="M622 130h2v4l4 1a91 91 0 0 1-4 4h-2v-5h-2v-2h2z"/><path fill="#ED85B7" d="M632 125c.75 1.688.75 1.688 1 4-1.75 2.75-1.75 2.75-4 5h-3l2-6h2v-2z"/><path fill="#FB62B6" d="m555 64 1 4h-2v2h-6v-4l2.938-.437c2.927-.239 2.927-.239 4.062-1.563"/><path fill="#8A97EE" d="m314 224 5 1 1 5h-4v-2h-4v-2h2z"/><path fill="#B087EE" d="M334 210h8v2h-6v2h-6v-2h4z"/><path fill="#83C1E9" d="m317 146 1 3-8 6-2-2h2v-3h4v-2z"/><path fill="#F666C2" d="M373 131q2.514.428 5 1v2h-2v4h-6v-2h4v-3l-2-1z"/><path fill="#F461B4" d="M393 124h5c-1.625 2-1.625 2-4 4-3.145.315-5.16.42-8-1v-2h7z"/><path fill="#EC6AAB" d="M644 98c1 3 1 3 1 7h-2l-1 3h-2c-.2-3.716-.152-4.772 2-8h2z"/><path fill="#F764AF" d="M643 88h1c.195 1.624.38 3.25.563 4.875l.316 2.742C645 98 645 98 644 100h-2c-1.36-4.083-.684-6.76 0-11z"/><path fill="#EE7EBA" d="m565 78 1 2h2v2h2l-1 12h-2l.125-3.687c.013-3.565-.633-6.048-2.125-9.313z"/><path fill="#F46AB1" d="M330 278h4v6h-6z"/><path fill="#ED78BE" d="M636 233c2 2 2 2 2.125 5.625L638 242h-2l-1 2c-1.026-4.41-1.037-6.926 1-11"/><path fill="#5FA9F8" d="M232 224v4h-2v4h-2c-1.062-2.375-1.062-2.375-2-5 1.393-2.786 2.989-3 6-3"/><path fill="#EC77B9" d="M641 219h1v9l-3 1v3h-2l1.438-4.812.808-2.708c.558-1.835 1.147-3.66 1.754-5.48"/><path fill="#F66FBD" d="m374 215 2 1h2v6l-1-2-5 2-1-5z"/><path fill="#81BAE9" d="m305 155 4 1-11 7c2-5 2-5 3-7l4 1z"/><path fill="#5CADE9" d="M705 37h1v5h2v8h-4v-2h2l-.5-1.562c-.65-3.172-.562-6.21-.5-9.438"/><path fill="#60AFF0" d="M101 20h1v10h-2v6l-2-1c.445-5.273 1.084-10.018 3-15"/><path fill="#81C3F0" d="M174 20h1c.315 5.99-.318 9.636-3 15-1.532-4.597-.806-9.105 1.063-13.5z"/><path fill="#59AEE8" d="M92 252h3a402 402 0 0 1-.375 4.938c-.07.916-.14 1.833-.21 2.777-.138.754-.274 1.508-.415 2.285l-2 1v-3h-2v-4h2z"/><path fill="#77BEEF" d="m234 217 1 3-1 2h-2v2h-2l-1 2-2-2z"/><path fill="#E175AC" d="M754 106h1v11h-3l-1-5h3z"/><path fill="#E991C3" d="m646 90 3 2-3 11h-2z"/><path fill="#7FC2EF" d="M244 345c-7.286 4.571-7.286 4.571-12 4l2-1v-2c6.625-2.125 6.625-2.125 10-1"/><path fill="#ED8EC0" d="M695 272c-5.75 5-5.75 5-8 5v-5c3.287-.8 4.71-1.097 8 0"/><path fill="#F278BA" d="M645 207c.936 3.155 1.106 5.966 1.063 9.25l-.028 2.703L646 221l-1-4-3 1c1.875-7.625 1.875-7.625 3-11"/><path fill="#78C2F4" d="M36 205h1c.125 6.75.125 6.75-1 9h-2l-1 4c-1-2-1-2-.223-4.602l1.16-3.023 1.153-3.04z"/><path fill="#B38AD1" d="M332 208h11l-1 2h-8v2h-2z"/><path fill="#4CB0ED" d="m51 168 3 1c1.188 3.563 1.188 3.563 2 7l-6-2z"/><path fill="#AA83E1" d="M320 168h2v6l-2.375.438c-2.59.44-2.59.44-4.625 1.562l1-5 4 1z"/><path fill="#B780C6" d="M336 157v3l-3 1-1 3h-2l-1-4c3.625-3 3.625-3 7-3"/><path fill="#48B1F5" d="M282 80h2l1 4h1v6h-2v-2h-2z"/><path fill="#5EABF2" d="M342 84h2c1.998 4.12 2.178 7.452 2 12h-2v-8h-2z"/><path fill="#70BAE8" d="M153 80h2c-.75 6.75-.75 6.75-3 9h-2c.7-3.147 1.76-6.026 3-9"/><path fill="#F08DC0" d="M390 65h2l-.062 2.813c-.096 3.21-.096 3.21 1.062 6.187l-4-1c-.125-5.75-.125-5.75 1-8"/><path fill="#FE94CE" d="m598 19 11 3-1 2-12-3z"/><path fill="#6AC0F9" d="M737 17v2c-3.473 1.158-6.36 1.069-10 1v-2c3.215-1.607 6.436-1.057 10-1"/><path fill="#5AB0E4" d="M185 347h1v9h-2v2h-2c.551-3.95 1.39-7.35 3-11"/><path fill="#69B8ED" d="M196 313h2l1 4-3 1v4h-3z"/><path fill="#ED68B1" d="M646 230h2v6h2v4h-2v-2h-2z"/><path fill="#7BA3E3" d="M308 230h4v2h-2v2h-4v2h-2v-4h4z"/><path fill="#AD90CF" d="M330 214h8v2h-2v2h-4v-2h-2z"/><path fill="#62A9EC" d="M116 178h7v3l-7 1z"/><path fill="#EE6AB7" d="M412 120h8v2h-4v2h-4z"/><path fill="#ED78BA" d="M567 95h1v7h-2v2l-4 2c1.45-3.791 3.152-7.387 5-11"/><path fill="#71B9F1" d="m88 57 4 1v4l-1.937.375L88 63l-1 2-2-1z"/><path fill="#48AAFE" d="M776 32h2v10h-2v-4h-2v-2h2z"/><path fill="#78BBEC" d="m368 36 1 2 2 1-3 8h-2c-.24-4.087.577-7.177 2-11"/><path fill="#62A8F6" d="M294 240h8c-1 2-1 2-3.312 3.125C296 244 296 244 292 244v-2h2z"/><path fill="#F57DBF" d="m716 212 5 1-2 7h-2z"/><path fill="#88BDE0" d="M122 176h14v1l-13 2z"/><path fill="#E674B0" d="M540 170h15v1l-6.152.684c-1.86.135-1.86.135-2.848 1.316-1.666.04-3.334.043-5 0z"/><path fill="#E778B0" d="M578 160h4v2l3 1h-2v2h-7l4-2v-2z"/><path fill="#FB5EB5" d="m630 112 4 1v3h2v4h-2v-2h-2v-4h-2z"/><path fill="#6EBFF2" d="m72 102 2 1v7l-5 1z"/><path fill="#4EB0F9" d="M276 86h2v6h-2v2l-3-1v-3h3z"/><path fill="#68B0F4" d="m298 20 6 2v2h-5l-1 6h-1q-.04-2.22-.062-4.437l-.036-2.497C297 21 297 21 298 20"/><path fill="#A6ADEB" d="M320 226h2l1 5-7 4v-3h2v-2h2z"/><path fill="#DA89DC" d="M356 202c2.928.976 4.614 2.108 7 4l-4 2v-2l-4 1c0-3 0-3 1-5"/><path fill="#BF7DD5" d="M326 168h4v2l3 1c-1.375 1.5-1.375 1.5-3 3h-2v-4h-2z"/><path fill="#FC5EB7" d="M356 144h4v4h-7v-2h3z"/><path fill="#8DC4ED" d="M335 125h2c-1.312 3.937-2.92 6.227-6 9l-1-3c2.313-3.187 2.313-3.187 5-6"/><path fill="#61AAE9" d="m69 112 1 4h3c-.375 2.938-.375 2.938-1 6l-2 1z"/><path fill="#EF8ABF" d="M643 105h2q-.716 2.188-1.437 4.375l-.81 2.46C642 114 642 114 641 116h-2q.716-2.188 1.438-4.375l.808-2.46C642 107 642 107 643 105"/><path fill="#E56DAF" d="M618 29c3.375.25 3.375.25 7 1 1.438 2.063 1.438 2.063 2 4h-3v-2h-4v-2z"/><path fill="#44B3EC" d="M299 19h13v1h-8v2l-5-1z"/><path fill="#74B5F5" d="M177 365c1.5 1.25 1.5 1.25 3 3v4l-5-1z"/><path fill="#74BBE2" d="M226 350h5c-1 3-1 3-2.937 4.25L226 355l-2-1v-2h2z"/><path fill="#5ABAF9" d="M88 260h4v3l2 1-1 2h-3c-2-3-2-3-2-6"/><path fill="#53B5F8" d="M216 255h1l1 11h-2a491 491 0 0 1-.562-4.375l-.317-2.46C215 257 215 257 216 255"/><path fill="#F268BC" d="M331 252h2c.93 2.606 1.15 3.642.063 6.25L332 260v-2h-2l-1-4h2z"/><path fill="#E46DB2" d="m331 244 1 2h2v2h2v2h-4l-1-2-2 2v-4h2z"/><path fill="#92BBEB" d="m304 239 3 2-2.375 1.313c-2.842 1.58-2.842 1.58-4.625 4.687l-1-5z"/><path fill="#B4A8E9" d="m334 224-9 5 1-5c3.287-.8 4.71-1.097 8 0"/><path fill="#C8A4E7" d="M344.813 214.688 347 215c-3.288 2.912-5.599 4.497-10 5 4.308-4.923 4.308-4.923 7.813-5.312"/><path fill="#6EBDF4" d="M276 81c2 3 2 3 2 5h-2v4h-3z"/><path fill="#4DAFED" d="M144 72h4v6h-4z"/><path fill="#F681BC" d="M643 51c2.154 2.622 3.4 4.644 4 8l-5-1z"/><path fill="#59ABED" d="M361 42h1v6l3 1h-3v3h-2c-.125-7.75-.125-7.75 1-10"/><path fill="#80C4F2" d="M165 44c1.125 1.5 1.125 1.5 2 4-.424 2.777-1.189 5.296-2 8-1.951-2.87-1.99-4.126-1.687-7.687C164 45 164 45 165 44"/><path fill="#4BAEF9" d="M200 362h7l-1 2h-2v2h-4z"/><path fill="#66B6E9" d="M212 358h6c-2 3-2 3-3.945 3.512l-2.18.175L208 362v-2h4z"/><path fill="#48AFEF" d="M232 344h6l-1 2h-3v2l-3 1-1-3h2z"/><path fill="#5CA8FA" d="M274 304h2v4h-2v4h-2v-6h2z"/><path fill="#E46DB0" d="M317 281h1v5h8v1h-11v-3h2z"/><path fill="#F190C4" d="m599 257 2 3c-.46 2.043-.46 2.043-1.375 4.188l-.898 2.167L598 268c-2-3.75-2-3.75-2-6h2z"/><path fill="#49B1FA" d="M236 224h2v4h-2v4h-2v-6h2z"/><path fill="#5CAAEE" d="M102 212h2l3 7-3 1v-4h-2z"/><path fill="#6EA5EA" d="M280 202h4v2h2v2h-6z"/><path fill="#F386BC" d="M400 176h2v3l4 1-7 3z"/><path fill="#C479D9" d="M330 164h4v2h2v4h-2v-2h-2v-2h-2z"/><path fill="#F28BBC" d="m615 143 4 1-8 6c0-3 0-3 1.75-5.25z"/><path fill="#F46AAB" d="M736 138h2l1 9h-3z"/><path fill="#60A8F7" d="M338 104h2v2h2v6h-2v-4h-2z"/><path fill="#5EB1E4" d="m348 82 2 4h2v5h-2v-3h-2z"/><path fill="#E86EAF" d="m395 57 2 1-1 6h-3c-.687-1.812-.687-1.812-1-4 1.438-1.75 1.438-1.75 3-3"/><path fill="#F262A7" d="m630 35 5 5h-2v2h-3z"/><path fill="#70C4F9" d="M768 17c6.523.615 6.523.615 8.938 2.563L778 21l-8-1v-2z"/><path fill="#64A8EC" d="M184 370h4v2h-2l1 3-5-1v-2h2z"/><path fill="#64ADE9" d="m244 340 3 1-2 3c-3.625.688-3.625.688-7 1l2-1v-2h4z"/><path fill="#67B9FC" d="M192 323h1l.375 2.375c.416 2.766.416 2.766 2.625 4.625h-2l-1 4c-2.22-8.561-2.22-8.561-1-11"/><path fill="#85CAF8" d="m283 289 2 1-3 9h-1v-7h2z"/><path fill="#5FAEE1" d="M209 279h1v5h-2l-1 4-2-2 2-5h2z"/><path fill="#6FC2F3" d="M18 265v5h-2v2l-3-1c2.154-6 2.154-6 5-6"/><path fill="#5DBDFE" d="M17 260h2l1 6h-3c-1-3-1-3 0-6"/><path fill="#EE68B5" d="M330 259v5h-2v4h-2c-.368-5.52-.368-5.52 1.438-7.875C329 259 329 259 330 259"/><path fill="#5AACEA" d="M219 249c3 2 3 2 3.75 3.938C223 255 223 255 222 258h-2z"/><path fill="#E45EAC" d="M643 217h2l1 7h-2v-2h-2z"/><path fill="#8AC8EE" d="m116 192 3 1-3 9h-1z"/><path fill="#ED7DB8" d="m421 193 3 1-2 6h-2c-.043-2-.04-4 0-6z"/><path fill="#EF87BB" d="m388 184 6 1-4 4-2-1z"/><path fill="#EE6BAC" d="M727 176h4l-2 11h-1z"/><path fill="#F79ACE" d="m733 172 2 3c-.46 2.043-.46 2.043-1.375 4.188l-.898 2.167L732 183h-1c-.286-7.429-.286-7.429 2-11"/><path fill="#E174AD" d="M736 160h1v8l-3 1-1-6 3 1z"/><path fill="#DA73CF" d="m339 156 5 1v3h-6z"/><path fill="#8AC5EB" d="m357 71 2 2-3 8-2-2v-3h2z"/><path fill="#7EC2F0" d="M360 60h1c.125 7.75.125 7.75-1 10h-2c-.22-3.856.396-6.492 2-10"/><path fill="#68B2FB" d="m292 36 4 2v4l-3 1c-1.062-2.375-1.062-2.375-2-5z"/><path fill="#63BCF6" d="M173 375h2v4l2 1-5 2z"/><path fill="#42AFF8" d="m178 373 6 1v2h-4v2h-2z"/><path fill="#46B0FC" d="M242 338h5v2h-3v2h-4v-2h2z"/><path fill="#56AEF6" d="M272 272h5l-1 4h-4z"/><path fill="#62A6EA" d="M290 248h2v5l-4 1v-4h2z"/><path fill="#E65DA0" d="M646 206h2l1 5-3 1-1 2z"/><path fill="#E398CF" d="m375 198-7 4-2-2h2v-2c3.01-.934 3.867-1.044 7 0"/><path fill="#E68BC5" d="M380 190h4c-1 3-1 3-3.062 4.188L379 195l-2-2 3-1z"/><path fill="#74C5F8" d="M260 174v3l-7 1v-3c2.49-.687 4.379-1 7-1"/><path fill="#F25FA6" d="m669 139 3 1v5h-3z"/><path fill="#FC5DAC" d="m629 120 1 2h4v2h-2l-1 2v-2l-4-1z"/><path fill="#E96EB3" d="M404 119v2l2 1-2 1-3-1v2c-2-1-2-1-3-3 3.75-2 3.75-2 6-2"/><path fill="#F45CAB" d="m555 114 1 2c-3.982 1.054-6.982.841-11 0v-1c3.406-.778 6.508-1.1 10-1"/><path fill="#EC95C3" d="m755 106 4 1-3 8h-1z"/><path fill="#F766A9" d="m572 76 1 2h3l-1 7h-1v-5h-2z"/><path fill="#85C3ED" d="M770 60c1.959 3.28 2.056 3.762 1.125 7.75L770 71l-2-2c.242-2.164.242-2.164.875-4.625l.617-2.477z"/><path fill="#5DA8EA" d="M718 28h2v2h4v2h-7l-1-2h2z"/><path fill="#FD86C7" d="m610 23 6 2-2 3-4-2z"/><path fill="#6CB8F4" d="M189 331h2l-1 8-3-1z"/><path fill="#62ADF3" d="M274 292h2c.688 2.813.688 2.813 1 6l-3 3z"/><path fill="#80C0ED" d="m290 266 3 1-2 7h-2z"/><path fill="#8BC7F2" d="M90 266h3l-3 9c-.959-3.836-.919-5.324 0-9"/><path fill="#5DAEF0" d="m292 261 2 3-2 3-3-1c-.687-2.062-.687-2.062-1-4l3 1z"/><path fill="#58AFF1" d="M292 250h4l-1 4h-5l2-1z"/><path fill="#73B3E7" d="m102 230 3 4c-2.75 3.875-2.75 3.875-5 5z"/><path fill="#FB5BAA" d="M411 230c-1 2-1 2-3 4h-4l1-3c2-1 2-1 6-1"/><path fill="#EA63B4" d="m363 226 3 1-2 1-1 2-2-1-1 3h-2v-2h2v-2z"/><path fill="#F472C6" d="M366 220c2 1 2 1 4 4h-2v2h-2l-2-5z"/><path fill="#54AEE1" d="m33 217 1 3h2v4h-2v-2h-2z"/><path fill="#55B1E2" d="M40 201v5h-2l-1 4v-8c2-1 2-1 3-1"/><path fill="#86A6DF" d="m284 187 2 1v2h-2v2h-4c1-3 1-3 4-5"/><path fill="#F282BF" d="m735 167 2 2c-.812 2.438-.812 2.438-2 5l-3 1c-.37-4.554-.37-4.554 1.5-6.812z"/><path fill="#EF68AB" d="M496 164h5l-1 4h-4z"/><path fill="#5AACE4" d="m59 140 1 4h2v4h-3c-.8-3.287-1.097-4.71 0-8"/><path fill="#EF69AD" d="M376 136h6v2l-6 2z"/><path fill="#71B9E8" d="m342 110 2 3-2 4h-2v-5h2z"/><path fill="#DF79AD" d="M752 101c2.375-.125 2.375-.125 5 0 2 2 2 2 2 5l-3 1v-5z"/><path fill="#86CEF6" d="m349 91 3 1-2 7c-2-3-2-3-1.625-5.687z"/><path fill="#F466BD" d="M572 86h4c-.375 2.438-.375 2.438-1 5l-2 1z"/><path fill="#58B2EC" d="M356 65h2l1 7-3 1c-.981-3.053-.981-4.947 0-8"/><path fill="#FE5CAE" d="M642 62h4l-2 6h-2z"/><path fill="#4EADEB" d="m290 42 1 4h3v5l-2-1v-2h-2z"/><path fill="#71BDED" d="M166 40h3c-.75 5.75-.75 5.75-3 8z"/><path fill="#5BA9E3" d="M776 22a91 91 0 0 1 4 4v2h-2v-2h-4v-2h2z"/><path fill="#41B9F8" d="m724 19 4 1v4h-4z"/><path fill="#44B1F6" d="M172 20h2l-1 4h-7v-2h6z"/></svg>
